ISO-10303-21;
HEADER;
/* Generated by software containing ST-Developer
 * from STEP Tools, Inc. (www.steptools.com) 
 */

FILE_DESCRIPTION(
/* description */ (''),
/* implementation_level */ '2;1');

FILE_NAME(
/* name */ 'Idler.step',
/* time_stamp */ '2026-07-11T23:05:03+09:00',
/* author */ (''),
/* organization */ (''),
/* preprocessor_version */ 'ST-DEVELOPER v20.1',
/* originating_system */ 'Autodesk Translation Framework v15.8.0.0',
/* authorisation */ '');

FILE_SCHEMA (('AUTOMOTIVE_DESIGN { 1 0 10303 214 3 1 1 }'));
ENDSEC;

DATA;
#10=MECHANICAL_DESIGN_GEOMETRIC_PRESENTATION_REPRESENTATION('',(#13,#14),
#378);
#11=SHAPE_REPRESENTATION_RELATIONSHIP('SRR','None',#385,#12);
#12=ADVANCED_BREP_SHAPE_REPRESENTATION('',(#15,#16),#377);
#13=STYLED_ITEM('',(#394),#15);
#14=STYLED_ITEM('',(#394),#16);
#15=MANIFOLD_SOLID_BREP('Body1',#206);
#16=MANIFOLD_SOLID_BREP('Body2',#207);
#17=FACE_BOUND('',#51,.T.);
#18=FACE_BOUND('',#53,.T.);
#19=FACE_BOUND('',#57,.T.);
#20=FACE_BOUND('',#59,.T.);
#21=FACE_BOUND('',#62,.T.);
#22=FACE_BOUND('',#66,.T.);
#23=FACE_BOUND('',#68,.T.);
#24=PLANE('',#229);
#25=PLANE('',#230);
#26=PLANE('',#237);
#27=PLANE('',#238);
#28=PLANE('',#242);
#29=PLANE('',#249);
#30=PLANE('',#250);
#31=CONICAL_SURFACE('',#224,4.7,1.10714871779409);
#32=FACE_OUTER_BOUND('',#47,.T.);
#33=FACE_OUTER_BOUND('',#48,.T.);
#34=FACE_OUTER_BOUND('',#49,.T.);
#35=FACE_OUTER_BOUND('',#50,.T.);
#36=FACE_OUTER_BOUND('',#52,.T.);
#37=FACE_OUTER_BOUND('',#54,.T.);
#38=FACE_OUTER_BOUND('',#55,.T.);
#39=FACE_OUTER_BOUND('',#56,.T.);
#40=FACE_OUTER_BOUND('',#58,.T.);
#41=FACE_OUTER_BOUND('',#60,.T.);
#42=FACE_OUTER_BOUND('',#61,.T.);
#43=FACE_OUTER_BOUND('',#63,.T.);
#44=FACE_OUTER_BOUND('',#64,.T.);
#45=FACE_OUTER_BOUND('',#65,.T.);
#46=FACE_OUTER_BOUND('',#67,.T.);
#47=EDGE_LOOP('',(#138,#139,#140,#141));
#48=EDGE_LOOP('',(#142,#143,#144,#145));
#49=EDGE_LOOP('',(#146,#147,#148,#149));
#50=EDGE_LOOP('',(#150));
#51=EDGE_LOOP('',(#151));
#52=EDGE_LOOP('',(#152));
#53=EDGE_LOOP('',(#153));
#54=EDGE_LOOP('',(#154,#155,#156,#157));
#55=EDGE_LOOP('',(#158,#159,#160,#161));
#56=EDGE_LOOP('',(#162));
#57=EDGE_LOOP('',(#163));
#58=EDGE_LOOP('',(#164));
#59=EDGE_LOOP('',(#165));
#60=EDGE_LOOP('',(#166,#167,#168,#169));
#61=EDGE_LOOP('',(#170));
#62=EDGE_LOOP('',(#171));
#63=EDGE_LOOP('',(#172,#173,#174,#175));
#64=EDGE_LOOP('',(#176,#177,#178,#179));
#65=EDGE_LOOP('',(#180));
#66=EDGE_LOOP('',(#181));
#67=EDGE_LOOP('',(#182));
#68=EDGE_LOOP('',(#183));
#69=LINE('',#326,#77);
#70=LINE('',#331,#78);
#71=LINE('',#336,#79);
#72=LINE('',#346,#80);
#73=LINE('',#351,#81);
#74=LINE('',#358,#82);
#75=LINE('',#365,#83);
#76=LINE('',#371,#84);
#77=VECTOR('',#257,6.4);
#78=VECTOR('',#264,4.7);
#79=VECTOR('',#269,2.2);
#80=VECTOR('',#282,1.4);
#81=VECTOR('',#289,7.);
#82=VECTOR('',#298,2.6);
#83=VECTOR('',#307,1.4);
#84=VECTOR('',#314,4.4);
#85=CIRCLE('',#222,6.4);
#86=CIRCLE('',#223,6.4);
#87=CIRCLE('',#225,3.);
#88=CIRCLE('',#227,2.2);
#89=CIRCLE('',#228,2.2);
#90=CIRCLE('',#231,7.);
#91=CIRCLE('',#233,1.4);
#92=CIRCLE('',#234,1.4);
#93=CIRCLE('',#236,7.);
#94=CIRCLE('',#240,2.6);
#95=CIRCLE('',#241,2.6);
#96=CIRCLE('',#243,1.4);
#97=CIRCLE('',#245,1.4);
#98=CIRCLE('',#247,4.4);
#99=CIRCLE('',#248,4.4);
#100=VERTEX_POINT('',#323);
#101=VERTEX_POINT('',#325);
#102=VERTEX_POINT('',#329);
#103=VERTEX_POINT('',#333);
#104=VERTEX_POINT('',#335);
#105=VERTEX_POINT('',#340);
#106=VERTEX_POINT('',#343);
#107=VERTEX_POINT('',#345);
#108=VERTEX_POINT('',#349);
#109=VERTEX_POINT('',#355);
#110=VERTEX_POINT('',#357);
#111=VERTEX_POINT('',#361);
#112=VERTEX_POINT('',#364);
#113=VERTEX_POINT('',#368);
#114=VERTEX_POINT('',#370);
#115=EDGE_CURVE('',#100,#100,#85,.T.);
#116=EDGE_CURVE('',#100,#101,#69,.T.);
#117=EDGE_CURVE('',#101,#101,#86,.T.);
#118=EDGE_CURVE('',#102,#102,#87,.T.);
#119=EDGE_CURVE('',#102,#100,#70,.T.);
#120=EDGE_CURVE('',#103,#103,#88,.T.);
#121=EDGE_CURVE('',#103,#104,#71,.T.);
#122=EDGE_CURVE('',#104,#104,#89,.T.);
#123=EDGE_CURVE('',#105,#105,#90,.T.);
#124=EDGE_CURVE('',#106,#106,#91,.T.);
#125=EDGE_CURVE('',#106,#107,#72,.T.);
#126=EDGE_CURVE('',#107,#107,#92,.T.);
#127=EDGE_CURVE('',#108,#108,#93,.T.);
#128=EDGE_CURVE('',#108,#105,#73,.T.);
#129=EDGE_CURVE('',#109,#109,#94,.T.);
#130=EDGE_CURVE('',#109,#110,#74,.T.);
#131=EDGE_CURVE('',#110,#110,#95,.T.);
#132=EDGE_CURVE('',#111,#111,#96,.T.);
#133=EDGE_CURVE('',#111,#112,#75,.T.);
#134=EDGE_CURVE('',#112,#112,#97,.T.);
#135=EDGE_CURVE('',#113,#113,#98,.T.);
#136=EDGE_CURVE('',#113,#114,#76,.T.);
#137=EDGE_CURVE('',#114,#114,#99,.T.);
#138=ORIENTED_EDGE('',*,*,#115,.F.);
#139=ORIENTED_EDGE('',*,*,#116,.T.);
#140=ORIENTED_EDGE('',*,*,#117,.F.);
#141=ORIENTED_EDGE('',*,*,#116,.F.);
#142=ORIENTED_EDGE('',*,*,#118,.F.);
#143=ORIENTED_EDGE('',*,*,#119,.T.);
#144=ORIENTED_EDGE('',*,*,#115,.T.);
#145=ORIENTED_EDGE('',*,*,#119,.F.);
#146=ORIENTED_EDGE('',*,*,#120,.F.);
#147=ORIENTED_EDGE('',*,*,#121,.T.);
#148=ORIENTED_EDGE('',*,*,#122,.F.);
#149=ORIENTED_EDGE('',*,*,#121,.F.);
#150=ORIENTED_EDGE('',*,*,#118,.T.);
#151=ORIENTED_EDGE('',*,*,#120,.T.);
#152=ORIENTED_EDGE('',*,*,#123,.T.);
#153=ORIENTED_EDGE('',*,*,#117,.T.);
#154=ORIENTED_EDGE('',*,*,#124,.F.);
#155=ORIENTED_EDGE('',*,*,#125,.T.);
#156=ORIENTED_EDGE('',*,*,#126,.F.);
#157=ORIENTED_EDGE('',*,*,#125,.F.);
#158=ORIENTED_EDGE('',*,*,#127,.F.);
#159=ORIENTED_EDGE('',*,*,#128,.T.);
#160=ORIENTED_EDGE('',*,*,#123,.F.);
#161=ORIENTED_EDGE('',*,*,#128,.F.);
#162=ORIENTED_EDGE('',*,*,#122,.T.);
#163=ORIENTED_EDGE('',*,*,#126,.T.);
#164=ORIENTED_EDGE('',*,*,#127,.T.);
#165=ORIENTED_EDGE('',*,*,#124,.T.);
#166=ORIENTED_EDGE('',*,*,#129,.F.);
#167=ORIENTED_EDGE('',*,*,#130,.T.);
#168=ORIENTED_EDGE('',*,*,#131,.F.);
#169=ORIENTED_EDGE('',*,*,#130,.F.);
#170=ORIENTED_EDGE('',*,*,#129,.T.);
#171=ORIENTED_EDGE('',*,*,#132,.T.);
#172=ORIENTED_EDGE('',*,*,#132,.F.);
#173=ORIENTED_EDGE('',*,*,#133,.T.);
#174=ORIENTED_EDGE('',*,*,#134,.T.);
#175=ORIENTED_EDGE('',*,*,#133,.F.);
#176=ORIENTED_EDGE('',*,*,#135,.F.);
#177=ORIENTED_EDGE('',*,*,#136,.T.);
#178=ORIENTED_EDGE('',*,*,#137,.T.);
#179=ORIENTED_EDGE('',*,*,#136,.F.);
#180=ORIENTED_EDGE('',*,*,#135,.T.);
#181=ORIENTED_EDGE('',*,*,#131,.T.);
#182=ORIENTED_EDGE('',*,*,#137,.F.);
#183=ORIENTED_EDGE('',*,*,#134,.F.);
#184=CYLINDRICAL_SURFACE('',#221,6.4);
#185=CYLINDRICAL_SURFACE('',#226,2.2);
#186=CYLINDRICAL_SURFACE('',#232,1.4);
#187=CYLINDRICAL_SURFACE('',#235,7.);
#188=CYLINDRICAL_SURFACE('',#239,2.6);
#189=CYLINDRICAL_SURFACE('',#244,1.4);
#190=CYLINDRICAL_SURFACE('',#246,4.4);
#191=ADVANCED_FACE('',(#32),#184,.T.);
#192=ADVANCED_FACE('',(#33),#31,.T.);
#193=ADVANCED_FACE('',(#34),#185,.F.);
#194=ADVANCED_FACE('',(#35,#17),#24,.T.);
#195=ADVANCED_FACE('',(#36,#18),#25,.T.);
#196=ADVANCED_FACE('',(#37),#186,.F.);
#197=ADVANCED_FACE('',(#38),#187,.T.);
#198=ADVANCED_FACE('',(#39,#19),#26,.T.);
#199=ADVANCED_FACE('',(#40,#20),#27,.F.);
#200=ADVANCED_FACE('',(#41),#188,.T.);
#201=ADVANCED_FACE('',(#42,#21),#28,.T.);
#202=ADVANCED_FACE('',(#43),#189,.F.);
#203=ADVANCED_FACE('',(#44),#190,.T.);
#204=ADVANCED_FACE('',(#45,#22),#29,.T.);
#205=ADVANCED_FACE('',(#46,#23),#30,.F.);
#206=CLOSED_SHELL('',(#191,#192,#193,#194,#195,#196,#197,#198,#199));
#207=CLOSED_SHELL('',(#200,#201,#202,#203,#204,#205));
#208=DERIVED_UNIT_ELEMENT(#210,1.);
#209=DERIVED_UNIT_ELEMENT(#380,-3.);
#210=(
MASS_UNIT()
NAMED_UNIT(*)
SI_UNIT(.KILO.,.GRAM.)
);
#211=DERIVED_UNIT((#208,#209));
#212=MEASURE_REPRESENTATION_ITEM('density measure',
POSITIVE_RATIO_MEASURE(7850.),#211);
#213=PROPERTY_DEFINITION_REPRESENTATION(#218,#215);
#214=PROPERTY_DEFINITION_REPRESENTATION(#219,#216);
#215=REPRESENTATION('material name',(#217),#377);
#216=REPRESENTATION('density',(#212),#377);
#217=DESCRIPTIVE_REPRESENTATION_ITEM('Steel','Steel');
#218=PROPERTY_DEFINITION('material property','material name',#387);
#219=PROPERTY_DEFINITION('material property','density of part',#387);
#220=AXIS2_PLACEMENT_3D('',#321,#251,#252);
#221=AXIS2_PLACEMENT_3D('',#322,#253,#254);
#222=AXIS2_PLACEMENT_3D('',#324,#255,#256);
#223=AXIS2_PLACEMENT_3D('',#327,#258,#259);
#224=AXIS2_PLACEMENT_3D('',#328,#260,#261);
#225=AXIS2_PLACEMENT_3D('',#330,#262,#263);
#226=AXIS2_PLACEMENT_3D('',#332,#265,#266);
#227=AXIS2_PLACEMENT_3D('',#334,#267,#268);
#228=AXIS2_PLACEMENT_3D('',#337,#270,#271);
#229=AXIS2_PLACEMENT_3D('',#338,#272,#273);
#230=AXIS2_PLACEMENT_3D('',#339,#274,#275);
#231=AXIS2_PLACEMENT_3D('',#341,#276,#277);
#232=AXIS2_PLACEMENT_3D('',#342,#278,#279);
#233=AXIS2_PLACEMENT_3D('',#344,#280,#281);
#234=AXIS2_PLACEMENT_3D('',#347,#283,#284);
#235=AXIS2_PLACEMENT_3D('',#348,#285,#286);
#236=AXIS2_PLACEMENT_3D('',#350,#287,#288);
#237=AXIS2_PLACEMENT_3D('',#352,#290,#291);
#238=AXIS2_PLACEMENT_3D('',#353,#292,#293);
#239=AXIS2_PLACEMENT_3D('',#354,#294,#295);
#240=AXIS2_PLACEMENT_3D('',#356,#296,#297);
#241=AXIS2_PLACEMENT_3D('',#359,#299,#300);
#242=AXIS2_PLACEMENT_3D('',#360,#301,#302);
#243=AXIS2_PLACEMENT_3D('',#362,#303,#304);
#244=AXIS2_PLACEMENT_3D('',#363,#305,#306);
#245=AXIS2_PLACEMENT_3D('',#366,#308,#309);
#246=AXIS2_PLACEMENT_3D('',#367,#310,#311);
#247=AXIS2_PLACEMENT_3D('',#369,#312,#313);
#248=AXIS2_PLACEMENT_3D('',#372,#315,#316);
#249=AXIS2_PLACEMENT_3D('',#373,#317,#318);
#250=AXIS2_PLACEMENT_3D('',#374,#319,#320);
#251=DIRECTION('axis',(0.,0.,1.));
#252=DIRECTION('refdir',(1.,0.,0.));
#253=DIRECTION('center_axis',(1.,0.,0.));
#254=DIRECTION('ref_axis',(0.,0.,-1.));
#255=DIRECTION('center_axis',(1.,0.,0.));
#256=DIRECTION('ref_axis',(0.,0.,-1.));
#257=DIRECTION('',(-1.,0.,0.));
#258=DIRECTION('center_axis',(-1.,0.,0.));
#259=DIRECTION('ref_axis',(0.,0.,-1.));
#260=DIRECTION('center_axis',(-1.,0.,0.));
#261=DIRECTION('ref_axis',(0.,0.,-1.));
#262=DIRECTION('center_axis',(1.,0.,0.));
#263=DIRECTION('ref_axis',(0.,0.,-1.));
#264=DIRECTION('',(-0.447213595499958,-1.09535739652841E-16,0.894427190999916));
#265=DIRECTION('center_axis',(1.,0.,0.));
#266=DIRECTION('ref_axis',(0.,0.,-1.));
#267=DIRECTION('center_axis',(-1.,0.,0.));
#268=DIRECTION('ref_axis',(0.,0.,-1.));
#269=DIRECTION('',(-1.,0.,0.));
#270=DIRECTION('center_axis',(1.,0.,0.));
#271=DIRECTION('ref_axis',(0.,0.,-1.));
#272=DIRECTION('center_axis',(1.,0.,0.));
#273=DIRECTION('ref_axis',(0.,0.,-1.));
#274=DIRECTION('center_axis',(1.,0.,0.));
#275=DIRECTION('ref_axis',(0.,0.,-1.));
#276=DIRECTION('center_axis',(1.,0.,0.));
#277=DIRECTION('ref_axis',(0.,0.,-1.));
#278=DIRECTION('center_axis',(-1.,0.,0.));
#279=DIRECTION('ref_axis',(0.,0.,-1.));
#280=DIRECTION('center_axis',(1.,0.,0.));
#281=DIRECTION('ref_axis',(0.,0.,-1.));
#282=DIRECTION('',(1.,0.,0.));
#283=DIRECTION('center_axis',(-1.,0.,0.));
#284=DIRECTION('ref_axis',(0.,0.,-1.));
#285=DIRECTION('center_axis',(-1.,0.,0.));
#286=DIRECTION('ref_axis',(0.,0.,-1.));
#287=DIRECTION('center_axis',(-1.,0.,0.));
#288=DIRECTION('ref_axis',(0.,0.,-1.));
#289=DIRECTION('',(1.,0.,0.));
#290=DIRECTION('center_axis',(1.,0.,0.));
#291=DIRECTION('ref_axis',(0.,0.,-1.));
#292=DIRECTION('center_axis',(1.,0.,0.));
#293=DIRECTION('ref_axis',(0.,0.,-1.));
#294=DIRECTION('center_axis',(-1.,0.,0.));
#295=DIRECTION('ref_axis',(0.,0.,1.));
#296=DIRECTION('center_axis',(-1.,0.,0.));
#297=DIRECTION('ref_axis',(0.,0.,1.));
#298=DIRECTION('',(1.,0.,0.));
#299=DIRECTION('center_axis',(1.,0.,0.));
#300=DIRECTION('ref_axis',(0.,0.,1.));
#301=DIRECTION('center_axis',(-1.,0.,0.));
#302=DIRECTION('ref_axis',(0.,0.,1.));
#303=DIRECTION('center_axis',(1.,0.,0.));
#304=DIRECTION('ref_axis',(0.,0.,1.));
#305=DIRECTION('center_axis',(-1.,0.,0.));
#306=DIRECTION('ref_axis',(0.,0.,1.));
#307=DIRECTION('',(1.,0.,0.));
#308=DIRECTION('center_axis',(1.,0.,0.));
#309=DIRECTION('ref_axis',(0.,0.,1.));
#310=DIRECTION('center_axis',(-1.,0.,0.));
#311=DIRECTION('ref_axis',(0.,0.,1.));
#312=DIRECTION('center_axis',(-1.,0.,0.));
#313=DIRECTION('ref_axis',(0.,0.,1.));
#314=DIRECTION('',(1.,0.,0.));
#315=DIRECTION('center_axis',(-1.,0.,0.));
#316=DIRECTION('ref_axis',(0.,0.,1.));
#317=DIRECTION('center_axis',(-1.,0.,0.));
#318=DIRECTION('ref_axis',(0.,0.,1.));
#319=DIRECTION('center_axis',(-1.,0.,0.));
#320=DIRECTION('ref_axis',(0.,0.,1.));
#321=CARTESIAN_POINT('',(0.,0.,0.));
#322=CARTESIAN_POINT('Origin',(0.15,0.,0.));
#323=CARTESIAN_POINT('',(0.3,-7.83773951454306E-16,6.4));
#324=CARTESIAN_POINT('Origin',(0.3,0.,0.));
#325=CARTESIAN_POINT('',(0.,-7.83773951454306E-16,6.4));
#326=CARTESIAN_POINT('',(0.15,-7.83773951454306E-16,6.4));
#327=CARTESIAN_POINT('Origin',(0.,0.,0.));
#328=CARTESIAN_POINT('Origin',(1.15,0.,0.));
#329=CARTESIAN_POINT('',(2.,-3.67394039744206E-16,3.));
#330=CARTESIAN_POINT('Origin',(2.,0.,0.));
#331=CARTESIAN_POINT('',(1.15,-5.75583995599256E-16,4.7));
#332=CARTESIAN_POINT('Origin',(0.,0.,0.));
#333=CARTESIAN_POINT('',(2.,-2.69422295812418E-16,2.2));
#334=CARTESIAN_POINT('Origin',(2.,0.,0.));
#335=CARTESIAN_POINT('',(0.,-2.69422295812418E-16,2.2));
#336=CARTESIAN_POINT('',(0.,-2.69422295812418E-16,2.2));
#337=CARTESIAN_POINT('Origin',(0.,0.,0.));
#338=CARTESIAN_POINT('Origin',(2.,0.,0.));
#339=CARTESIAN_POINT('Origin',(0.,0.,0.));
#340=CARTESIAN_POINT('',(0.,-8.57252759403147E-16,7.));
#341=CARTESIAN_POINT('Origin',(0.,0.,0.));
#342=CARTESIAN_POINT('Origin',(0.,0.,0.));
#343=CARTESIAN_POINT('',(-0.8,-1.71450551880629E-16,1.4));
#344=CARTESIAN_POINT('Origin',(-0.8,0.,0.));
#345=CARTESIAN_POINT('',(0.,-1.71450551880629E-16,1.4));
#346=CARTESIAN_POINT('',(0.,1.71450551880629E-16,1.4));
#347=CARTESIAN_POINT('Origin',(0.,0.,0.));
#348=CARTESIAN_POINT('Origin',(0.,0.,0.));
#349=CARTESIAN_POINT('',(-0.8,-8.57252759403147E-16,7.));
#350=CARTESIAN_POINT('Origin',(-0.8,0.,0.));
#351=CARTESIAN_POINT('',(0.,8.57252759403147E-16,7.));
#352=CARTESIAN_POINT('Origin',(0.,0.,0.));
#353=CARTESIAN_POINT('Origin',(-0.8,0.,0.));
#354=CARTESIAN_POINT('Origin',(-2.6,0.,0.));
#355=CARTESIAN_POINT('',(-5.,-3.18408167778312E-16,-2.6));
#356=CARTESIAN_POINT('Origin',(-5.,0.,0.));
#357=CARTESIAN_POINT('',(-3.8,3.18408167778312E-16,-2.6));
#358=CARTESIAN_POINT('',(-2.6,-3.18408167778312E-16,-2.6));
#359=CARTESIAN_POINT('Origin',(-3.8,0.,0.));
#360=CARTESIAN_POINT('Origin',(-5.,0.,0.));
#361=CARTESIAN_POINT('',(-5.,-1.71450551880629E-16,-1.4));
#362=CARTESIAN_POINT('Origin',(-5.,0.,0.));
#363=CARTESIAN_POINT('Origin',(-2.6,0.,0.));
#364=CARTESIAN_POINT('',(-2.6,-1.71450551880629E-16,-1.4));
#365=CARTESIAN_POINT('',(-2.6,-1.71450551880629E-16,-1.4));
#366=CARTESIAN_POINT('Origin',(-2.6,0.,0.));
#367=CARTESIAN_POINT('Origin',(-2.6,0.,0.));
#368=CARTESIAN_POINT('',(-3.8,-5.38844591624835E-16,-4.4));
#369=CARTESIAN_POINT('Origin',(-3.8,0.,0.));
#370=CARTESIAN_POINT('',(-2.6,-5.38844591624835E-16,-4.4));
#371=CARTESIAN_POINT('',(-2.6,-5.38844591624835E-16,-4.4));
#372=CARTESIAN_POINT('Origin',(-2.6,0.,0.));
#373=CARTESIAN_POINT('Origin',(-3.8,0.,0.));
#374=CARTESIAN_POINT('Origin',(-2.6,0.,0.));
#375=UNCERTAINTY_MEASURE_WITH_UNIT(LENGTH_MEASURE(0.01),#379,
'DISTANCE_ACCURACY_VALUE',
'Maximum model space distance between geometric entities at asserted c
onnectivities');
#376=UNCERTAINTY_MEASURE_WITH_UNIT(LENGTH_MEASURE(0.01),#379,
'DISTANCE_ACCURACY_VALUE',
'Maximum model space distance between geometric entities at asserted c
onnectivities');
#377=(
GEOMETRIC_REPRESENTATION_CONTEXT(3)
GLOBAL_UNCERTAINTY_ASSIGNED_CONTEXT((#375))
GLOBAL_UNIT_ASSIGNED_CONTEXT((#379,#381,#382))
REPRESENTATION_CONTEXT('','3D')
);
#378=(
GEOMETRIC_REPRESENTATION_CONTEXT(3)
GLOBAL_UNCERTAINTY_ASSIGNED_CONTEXT((#376))
GLOBAL_UNIT_ASSIGNED_CONTEXT((#379,#381,#382))
REPRESENTATION_CONTEXT('','3D')
);
#379=(
LENGTH_UNIT()
NAMED_UNIT(*)
SI_UNIT(.MILLI.,.METRE.)
);
#380=(
LENGTH_UNIT()
NAMED_UNIT(*)
SI_UNIT($,.METRE.)
);
#381=(
NAMED_UNIT(*)
PLANE_ANGLE_UNIT()
SI_UNIT($,.RADIAN.)
);
#382=(
NAMED_UNIT(*)
SI_UNIT($,.STERADIAN.)
SOLID_ANGLE_UNIT()
);
#383=SHAPE_DEFINITION_REPRESENTATION(#384,#385);
#384=PRODUCT_DEFINITION_SHAPE('',$,#387);
#385=SHAPE_REPRESENTATION('',(#220),#377);
#386=PRODUCT_DEFINITION_CONTEXT('part definition',#391,'design');
#387=PRODUCT_DEFINITION('Idler','Idler v5',#388,#386);
#388=PRODUCT_DEFINITION_FORMATION('',$,#393);
#389=PRODUCT_RELATED_PRODUCT_CATEGORY('Idler v5','Idler v5',(#393));
#390=APPLICATION_PROTOCOL_DEFINITION('international standard',
'automotive_design',2009,#391);
#391=APPLICATION_CONTEXT(
'Core Data for Automotive Mechanical Design Process');
#392=PRODUCT_CONTEXT('part definition',#391,'mechanical');
#393=PRODUCT('Idler','Idler v5',$,(#392));
#394=PRESENTATION_STYLE_ASSIGNMENT((#395));
#395=SURFACE_STYLE_USAGE(.BOTH.,#396);
#396=SURFACE_SIDE_STYLE('',(#397));
#397=SURFACE_STYLE_FILL_AREA(#398);
#398=FILL_AREA_STYLE('Steel - Satin',(#399));
#399=FILL_AREA_STYLE_COLOUR('Steel - Satin',#400);
#400=COLOUR_RGB('Steel - Satin',0.627450980392157,0.627450980392157,0.627450980392157);
ENDSEC;
END-ISO-10303-21;
