ISO-10303-21;
HEADER;
/* Generated by software containing ST-Developer
 * from STEP Tools, Inc. (www.steptools.com) 
 */

FILE_DESCRIPTION(
/* description */ (''),
/* implementation_level */ '2;1');

FILE_NAME(
/* name */ 'Motor Guide 3mm D.step',
/* time_stamp */ '2026-07-11T23:05:32+09:00',
/* author */ (''),
/* organization */ (''),
/* preprocessor_version */ 'ST-DEVELOPER v20.1',
/* originating_system */ 'Autodesk Translation Framework v15.8.0.0',
/* authorisation */ '');

FILE_SCHEMA (('AUTOMOTIVE_DESIGN { 1 0 10303 214 3 1 1 }'));
ENDSEC;

DATA;
#10=MECHANICAL_DESIGN_GEOMETRIC_PRESENTATION_REPRESENTATION('',(#17),#380);
#11=ITEM_DEFINED_TRANSFORMATION($,$,#236,#253);
#12=(
REPRESENTATION_RELATIONSHIP($,$,#391,#390)
REPRESENTATION_RELATIONSHIP_WITH_TRANSFORMATION(#11)
SHAPE_REPRESENTATION_RELATIONSHIP()
);
#13=CONTEXT_DEPENDENT_SHAPE_REPRESENTATION(#12,#389);
#14=NEXT_ASSEMBLY_USAGE_OCCURRENCE('Sproket Holder:1',
'Sproket Holder:1','Sproket Holder:1',#393,#394,'Sproket Holder:1');
#15=SHAPE_REPRESENTATION_RELATIONSHIP('SRR','None',#391,#16);
#16=ADVANCED_BREP_SHAPE_REPRESENTATION('',(#18),#379);
#17=STYLED_ITEM('',(#404),#18);
#18=MANIFOLD_SOLID_BREP('Body1',#222);
#19=FACE_BOUND('',#46,.T.);
#20=FACE_BOUND('',#56,.T.);
#21=FACE_BOUND('',#58,.T.);
#22=PLANE('',#240);
#23=PLANE('',#242);
#24=PLANE('',#245);
#25=PLANE('',#246);
#26=PLANE('',#247);
#27=PLANE('',#248);
#28=PLANE('',#249);
#29=PLANE('',#250);
#30=PLANE('',#251);
#31=PLANE('',#252);
#32=FACE_OUTER_BOUND('',#44,.T.);
#33=FACE_OUTER_BOUND('',#45,.T.);
#34=FACE_OUTER_BOUND('',#47,.T.);
#35=FACE_OUTER_BOUND('',#48,.T.);
#36=FACE_OUTER_BOUND('',#49,.T.);
#37=FACE_OUTER_BOUND('',#50,.T.);
#38=FACE_OUTER_BOUND('',#51,.T.);
#39=FACE_OUTER_BOUND('',#52,.T.);
#40=FACE_OUTER_BOUND('',#53,.T.);
#41=FACE_OUTER_BOUND('',#54,.T.);
#42=FACE_OUTER_BOUND('',#55,.T.);
#43=FACE_OUTER_BOUND('',#57,.T.);
#44=EDGE_LOOP('',(#154,#155,#156,#157));
#45=EDGE_LOOP('',(#158));
#46=EDGE_LOOP('',(#159,#160));
#47=EDGE_LOOP('',(#161,#162,#163,#164));
#48=EDGE_LOOP('',(#165,#166,#167,#168));
#49=EDGE_LOOP('',(#169,#170,#171,#172));
#50=EDGE_LOOP('',(#173,#174,#175,#176));
#51=EDGE_LOOP('',(#177,#178,#179,#180));
#52=EDGE_LOOP('',(#181,#182,#183,#184));
#53=EDGE_LOOP('',(#185,#186,#187,#188));
#54=EDGE_LOOP('',(#189,#190,#191,#192));
#55=EDGE_LOOP('',(#193,#194,#195,#196,#197,#198));
#56=EDGE_LOOP('',(#199));
#57=EDGE_LOOP('',(#200,#201,#202,#203,#204,#205));
#58=EDGE_LOOP('',(#206,#207));
#59=LINE('',#321,#82);
#60=LINE('',#327,#83);
#61=LINE('',#330,#84);
#62=LINE('',#332,#85);
#63=LINE('',#333,#86);
#64=LINE('',#339,#87);
#65=LINE('',#341,#88);
#66=LINE('',#343,#89);
#67=LINE('',#344,#90);
#68=LINE('',#347,#91);
#69=LINE('',#349,#92);
#70=LINE('',#350,#93);
#71=LINE('',#353,#94);
#72=LINE('',#355,#95);
#73=LINE('',#356,#96);
#74=LINE('',#359,#97);
#75=LINE('',#361,#98);
#76=LINE('',#362,#99);
#77=LINE('',#365,#100);
#78=LINE('',#367,#101);
#79=LINE('',#368,#102);
#80=LINE('',#370,#103);
#81=LINE('',#371,#104);
#82=VECTOR('',#262,2.5);
#83=VECTOR('',#269,10.);
#84=VECTOR('',#272,10.);
#85=VECTOR('',#273,10.);
#86=VECTOR('',#274,10.);
#87=VECTOR('',#281,10.);
#88=VECTOR('',#282,10.);
#89=VECTOR('',#283,10.);
#90=VECTOR('',#284,10.);
#91=VECTOR('',#287,10.);
#92=VECTOR('',#288,10.);
#93=VECTOR('',#289,10.);
#94=VECTOR('',#292,10.);
#95=VECTOR('',#293,10.);
#96=VECTOR('',#294,10.);
#97=VECTOR('',#297,10.);
#98=VECTOR('',#298,10.);
#99=VECTOR('',#299,10.);
#100=VECTOR('',#302,10.);
#101=VECTOR('',#303,10.);
#102=VECTOR('',#304,10.);
#103=VECTOR('',#307,10.);
#104=VECTOR('',#308,10.);
#105=CIRCLE('',#238,2.5);
#106=CIRCLE('',#239,2.5);
#107=CIRCLE('',#241,1.6);
#108=CIRCLE('',#244,1.6);
#109=VERTEX_POINT('',#318);
#110=VERTEX_POINT('',#320);
#111=VERTEX_POINT('',#324);
#112=VERTEX_POINT('',#325);
#113=VERTEX_POINT('',#329);
#114=VERTEX_POINT('',#331);
#115=VERTEX_POINT('',#337);
#116=VERTEX_POINT('',#338);
#117=VERTEX_POINT('',#340);
#118=VERTEX_POINT('',#342);
#119=VERTEX_POINT('',#346);
#120=VERTEX_POINT('',#348);
#121=VERTEX_POINT('',#352);
#122=VERTEX_POINT('',#354);
#123=VERTEX_POINT('',#358);
#124=VERTEX_POINT('',#360);
#125=VERTEX_POINT('',#364);
#126=VERTEX_POINT('',#366);
#127=EDGE_CURVE('',#109,#109,#105,.T.);
#128=EDGE_CURVE('',#109,#110,#59,.T.);
#129=EDGE_CURVE('',#110,#110,#106,.T.);
#130=EDGE_CURVE('',#111,#112,#107,.T.);
#131=EDGE_CURVE('',#112,#111,#60,.T.);
#132=EDGE_CURVE('',#113,#112,#61,.T.);
#133=EDGE_CURVE('',#114,#113,#62,.T.);
#134=EDGE_CURVE('',#111,#114,#63,.T.);
#135=EDGE_CURVE('',#113,#114,#108,.T.);
#136=EDGE_CURVE('',#115,#116,#64,.T.);
#137=EDGE_CURVE('',#115,#117,#65,.T.);
#138=EDGE_CURVE('',#118,#117,#66,.T.);
#139=EDGE_CURVE('',#116,#118,#67,.T.);
#140=EDGE_CURVE('',#116,#119,#68,.T.);
#141=EDGE_CURVE('',#120,#118,#69,.T.);
#142=EDGE_CURVE('',#119,#120,#70,.T.);
#143=EDGE_CURVE('',#119,#121,#71,.T.);
#144=EDGE_CURVE('',#122,#120,#72,.T.);
#145=EDGE_CURVE('',#121,#122,#73,.T.);
#146=EDGE_CURVE('',#121,#123,#74,.T.);
#147=EDGE_CURVE('',#124,#122,#75,.T.);
#148=EDGE_CURVE('',#123,#124,#76,.T.);
#149=EDGE_CURVE('',#123,#125,#77,.T.);
#150=EDGE_CURVE('',#126,#124,#78,.T.);
#151=EDGE_CURVE('',#125,#126,#79,.T.);
#152=EDGE_CURVE('',#125,#115,#80,.T.);
#153=EDGE_CURVE('',#117,#126,#81,.T.);
#154=ORIENTED_EDGE('',*,*,#127,.F.);
#155=ORIENTED_EDGE('',*,*,#128,.T.);
#156=ORIENTED_EDGE('',*,*,#129,.F.);
#157=ORIENTED_EDGE('',*,*,#128,.F.);
#158=ORIENTED_EDGE('',*,*,#127,.T.);
#159=ORIENTED_EDGE('',*,*,#130,.T.);
#160=ORIENTED_EDGE('',*,*,#131,.T.);
#161=ORIENTED_EDGE('',*,*,#132,.F.);
#162=ORIENTED_EDGE('',*,*,#133,.F.);
#163=ORIENTED_EDGE('',*,*,#134,.F.);
#164=ORIENTED_EDGE('',*,*,#131,.F.);
#165=ORIENTED_EDGE('',*,*,#134,.T.);
#166=ORIENTED_EDGE('',*,*,#135,.F.);
#167=ORIENTED_EDGE('',*,*,#132,.T.);
#168=ORIENTED_EDGE('',*,*,#130,.F.);
#169=ORIENTED_EDGE('',*,*,#136,.F.);
#170=ORIENTED_EDGE('',*,*,#137,.T.);
#171=ORIENTED_EDGE('',*,*,#138,.F.);
#172=ORIENTED_EDGE('',*,*,#139,.F.);
#173=ORIENTED_EDGE('',*,*,#140,.F.);
#174=ORIENTED_EDGE('',*,*,#139,.T.);
#175=ORIENTED_EDGE('',*,*,#141,.F.);
#176=ORIENTED_EDGE('',*,*,#142,.F.);
#177=ORIENTED_EDGE('',*,*,#143,.F.);
#178=ORIENTED_EDGE('',*,*,#142,.T.);
#179=ORIENTED_EDGE('',*,*,#144,.F.);
#180=ORIENTED_EDGE('',*,*,#145,.F.);
#181=ORIENTED_EDGE('',*,*,#146,.F.);
#182=ORIENTED_EDGE('',*,*,#145,.T.);
#183=ORIENTED_EDGE('',*,*,#147,.F.);
#184=ORIENTED_EDGE('',*,*,#148,.F.);
#185=ORIENTED_EDGE('',*,*,#149,.F.);
#186=ORIENTED_EDGE('',*,*,#148,.T.);
#187=ORIENTED_EDGE('',*,*,#150,.F.);
#188=ORIENTED_EDGE('',*,*,#151,.F.);
#189=ORIENTED_EDGE('',*,*,#152,.F.);
#190=ORIENTED_EDGE('',*,*,#151,.T.);
#191=ORIENTED_EDGE('',*,*,#153,.F.);
#192=ORIENTED_EDGE('',*,*,#137,.F.);
#193=ORIENTED_EDGE('',*,*,#152,.T.);
#194=ORIENTED_EDGE('',*,*,#136,.T.);
#195=ORIENTED_EDGE('',*,*,#140,.T.);
#196=ORIENTED_EDGE('',*,*,#143,.T.);
#197=ORIENTED_EDGE('',*,*,#146,.T.);
#198=ORIENTED_EDGE('',*,*,#149,.T.);
#199=ORIENTED_EDGE('',*,*,#129,.T.);
#200=ORIENTED_EDGE('',*,*,#153,.T.);
#201=ORIENTED_EDGE('',*,*,#150,.T.);
#202=ORIENTED_EDGE('',*,*,#147,.T.);
#203=ORIENTED_EDGE('',*,*,#144,.T.);
#204=ORIENTED_EDGE('',*,*,#141,.T.);
#205=ORIENTED_EDGE('',*,*,#138,.T.);
#206=ORIENTED_EDGE('',*,*,#135,.T.);
#207=ORIENTED_EDGE('',*,*,#133,.T.);
#208=CYLINDRICAL_SURFACE('',#237,2.5);
#209=CYLINDRICAL_SURFACE('',#243,1.6);
#210=ADVANCED_FACE('',(#32),#208,.T.);
#211=ADVANCED_FACE('',(#33,#19),#22,.T.);
#212=ADVANCED_FACE('',(#34),#23,.T.);
#213=ADVANCED_FACE('',(#35),#209,.F.);
#214=ADVANCED_FACE('',(#36),#24,.T.);
#215=ADVANCED_FACE('',(#37),#25,.T.);
#216=ADVANCED_FACE('',(#38),#26,.T.);
#217=ADVANCED_FACE('',(#39),#27,.T.);
#218=ADVANCED_FACE('',(#40),#28,.T.);
#219=ADVANCED_FACE('',(#41),#29,.T.);
#220=ADVANCED_FACE('',(#42,#20),#30,.T.);
#221=ADVANCED_FACE('',(#43,#21),#31,.F.);
#222=CLOSED_SHELL('',(#210,#211,#212,#213,#214,#215,#216,#217,#218,#219,
#220,#221));
#223=DERIVED_UNIT_ELEMENT(#225,1.);
#224=DERIVED_UNIT_ELEMENT(#382,-3.);
#225=(
MASS_UNIT()
NAMED_UNIT(*)
SI_UNIT(.KILO.,.GRAM.)
);
#226=DERIVED_UNIT((#223,#224));
#227=MEASURE_REPRESENTATION_ITEM('density measure',
POSITIVE_RATIO_MEASURE(7850.),#226);
#228=PROPERTY_DEFINITION_REPRESENTATION(#233,#230);
#229=PROPERTY_DEFINITION_REPRESENTATION(#234,#231);
#230=REPRESENTATION('material name',(#232),#379);
#231=REPRESENTATION('density',(#227),#379);
#232=DESCRIPTIVE_REPRESENTATION_ITEM('Steel','Steel');
#233=PROPERTY_DEFINITION('material property','material name',#394);
#234=PROPERTY_DEFINITION('material property','density of part',#394);
#235=AXIS2_PLACEMENT_3D('',#315,#254,#255);
#236=AXIS2_PLACEMENT_3D('',#316,#256,#257);
#237=AXIS2_PLACEMENT_3D('',#317,#258,#259);
#238=AXIS2_PLACEMENT_3D('',#319,#260,#261);
#239=AXIS2_PLACEMENT_3D('',#322,#263,#264);
#240=AXIS2_PLACEMENT_3D('',#323,#265,#266);
#241=AXIS2_PLACEMENT_3D('',#326,#267,#268);
#242=AXIS2_PLACEMENT_3D('',#328,#270,#271);
#243=AXIS2_PLACEMENT_3D('',#334,#275,#276);
#244=AXIS2_PLACEMENT_3D('',#335,#277,#278);
#245=AXIS2_PLACEMENT_3D('',#336,#279,#280);
#246=AXIS2_PLACEMENT_3D('',#345,#285,#286);
#247=AXIS2_PLACEMENT_3D('',#351,#290,#291);
#248=AXIS2_PLACEMENT_3D('',#357,#295,#296);
#249=AXIS2_PLACEMENT_3D('',#363,#300,#301);
#250=AXIS2_PLACEMENT_3D('',#369,#305,#306);
#251=AXIS2_PLACEMENT_3D('',#372,#309,#310);
#252=AXIS2_PLACEMENT_3D('',#373,#311,#312);
#253=AXIS2_PLACEMENT_3D('',#374,#313,#314);
#254=DIRECTION('axis',(0.,0.,1.));
#255=DIRECTION('refdir',(1.,0.,0.));
#256=DIRECTION('axis',(0.,0.,1.));
#257=DIRECTION('refdir',(1.,0.,0.));
#258=DIRECTION('center_axis',(1.,0.,0.));
#259=DIRECTION('ref_axis',(0.,0.,-1.));
#260=DIRECTION('center_axis',(1.,0.,0.));
#261=DIRECTION('ref_axis',(0.,0.,-1.));
#262=DIRECTION('',(-1.,0.,0.));
#263=DIRECTION('center_axis',(-1.,0.,0.));
#264=DIRECTION('ref_axis',(0.,0.,-1.));
#265=DIRECTION('center_axis',(1.,0.,0.));
#266=DIRECTION('ref_axis',(0.,0.,-1.));
#267=DIRECTION('center_axis',(-1.,0.,0.));
#268=DIRECTION('ref_axis',(0.,0.,-1.));
#269=DIRECTION('',(0.,0.,-1.));
#270=DIRECTION('center_axis',(0.,-1.,0.));
#271=DIRECTION('ref_axis',(0.,0.,1.));
#272=DIRECTION('',(1.,0.,0.));
#273=DIRECTION('',(0.,0.,1.));
#274=DIRECTION('',(-1.,0.,0.));
#275=DIRECTION('center_axis',(-1.,0.,0.));
#276=DIRECTION('ref_axis',(0.,-1.,-6.12323399573677E-17));
#277=DIRECTION('center_axis',(1.,0.,0.));
#278=DIRECTION('ref_axis',(0.,0.,-1.));
#279=DIRECTION('center_axis',(0.,0.490690487070829,0.87133394625608));
#280=DIRECTION('ref_axis',(0.,0.871333946256079,-0.490690487070829));
#281=DIRECTION('',(0.,-0.871333946256079,0.490690487070829));
#282=DIRECTION('',(-1.,0.,0.));
#283=DIRECTION('',(0.,0.871333946256079,-0.490690487070829));
#284=DIRECTION('',(-1.,0.,0.));
#285=DIRECTION('center_axis',(0.,-0.509252089102095,0.860617400326738));
#286=DIRECTION('ref_axis',(0.,0.860617400326738,0.509252089102095));
#287=DIRECTION('',(0.,-0.860617400326738,-0.509252089102095));
#288=DIRECTION('',(0.,0.860617400326738,0.509252089102095));
#289=DIRECTION('',(-1.,0.,0.));
#290=DIRECTION('center_axis',(0.,-0.999942576172924,-0.0107165459293465));
#291=DIRECTION('ref_axis',(0.,-0.0107165459293465,0.999942576172924));
#292=DIRECTION('',(0.,0.0107165459293465,-0.999942576172924));
#293=DIRECTION('',(0.,-0.0107165459293465,0.999942576172924));
#294=DIRECTION('',(-1.,0.,0.));
#295=DIRECTION('center_axis',(0.,-0.490690487070829,-0.87133394625608));
#296=DIRECTION('ref_axis',(0.,-0.87133394625608,0.490690487070829));
#297=DIRECTION('',(0.,0.87133394625608,-0.490690487070829));
#298=DIRECTION('',(0.,-0.87133394625608,0.490690487070829));
#299=DIRECTION('',(-1.,0.,0.));
#300=DIRECTION('center_axis',(0.,0.509252089102094,-0.860617400326738));
#301=DIRECTION('ref_axis',(0.,-0.860617400326738,-0.509252089102094));
#302=DIRECTION('',(0.,0.860617400326738,0.509252089102094));
#303=DIRECTION('',(0.,-0.860617400326738,-0.509252089102094));
#304=DIRECTION('',(-1.,0.,0.));
#305=DIRECTION('center_axis',(0.,0.999942576172924,0.0107165459293413));
#306=DIRECTION('ref_axis',(0.,0.0107165459293413,-0.999942576172924));
#307=DIRECTION('',(0.,-0.0107165459293413,0.999942576172924));
#308=DIRECTION('',(0.,0.0107165459293413,-0.999942576172924));
#309=DIRECTION('center_axis',(1.,0.,0.));
#310=DIRECTION('ref_axis',(0.,0.,-1.));
#311=DIRECTION('center_axis',(1.,0.,0.));
#312=DIRECTION('ref_axis',(0.,0.,-1.));
#313=DIRECTION('',(0.,0.,1.));
#314=DIRECTION('',(1.,0.,0.));
#315=CARTESIAN_POINT('',(0.,0.,0.));
#316=CARTESIAN_POINT('',(0.,0.,0.));
#317=CARTESIAN_POINT('Origin',(0.,3.59999991059301,9.99999977648224));
#318=CARTESIAN_POINT('',(3.,3.59999991059301,12.4999997764822));
#319=CARTESIAN_POINT('Origin',(3.,3.59999991059301,9.99999977648224));
#320=CARTESIAN_POINT('',(0.,3.59999991059301,12.4999997764822));
#321=CARTESIAN_POINT('',(0.,3.59999991059301,12.4999997764822));
#322=CARTESIAN_POINT('Origin',(0.,3.59999991059301,9.99999977648224));
#323=CARTESIAN_POINT('Origin',(3.,3.59999991059301,9.99999977648224));
#324=CARTESIAN_POINT('',(3.,4.79999991059472,8.94169925205912));
#325=CARTESIAN_POINT('',(3.,4.79999991059472,11.0583003009108));
#326=CARTESIAN_POINT('Origin',(3.,3.59999991059471,9.99999977648496));
#327=CARTESIAN_POINT('',(3.,4.79999991059472,11.0583003009108));
#328=CARTESIAN_POINT('Origin',(0.,4.79999991059472,8.94169925205912));
#329=CARTESIAN_POINT('',(-4.,4.79999991059472,11.0583003009108));
#330=CARTESIAN_POINT('',(0.,4.79999991059472,11.0583003009108));
#331=CARTESIAN_POINT('',(-4.,4.79999991059472,8.94169925205912));
#332=CARTESIAN_POINT('',(-4.,4.79999991059472,11.0583003009108));
#333=CARTESIAN_POINT('',(0.,4.79999991059472,8.94169925205912));
#334=CARTESIAN_POINT('Origin',(0.,3.59999991059471,9.99999977648496));
#335=CARTESIAN_POINT('Origin',(-4.,3.59999991059471,9.99999977648496));
#336=CARTESIAN_POINT('Origin',(0.,3.56163926639227,13.579365892755));
#337=CARTESIAN_POINT('',(0.,6.6806415746301,11.8229041269988));
#338=CARTESIAN_POINT('',(0.,3.56163926639227,13.579365892755));
#339=CARTESIAN_POINT('',(0.,6.6806415746301,11.8229041269988));
#340=CARTESIAN_POINT('',(-4.,6.6806415746301,11.8229041269988));
#341=CARTESIAN_POINT('',(0.,6.6806415746301,11.8229041269988));
#342=CARTESIAN_POINT('',(-4.,3.56163926639227,13.579365892755));
#343=CARTESIAN_POINT('',(-4.,6.6806415746301,11.8229041269988));
#344=CARTESIAN_POINT('',(0.,3.56163926639227,13.579365892755));
#345=CARTESIAN_POINT('Origin',(0.,0.480997602352419,11.7564615422369));
#346=CARTESIAN_POINT('',(0.,0.480997602352419,11.7564615422369));
#347=CARTESIAN_POINT('',(0.,3.56163926639227,13.579365892755));
#348=CARTESIAN_POINT('',(-4.,0.480997602352419,11.7564615422369));
#349=CARTESIAN_POINT('',(-4.,3.56163926639227,13.579365892755));
#350=CARTESIAN_POINT('',(0.,0.480997602352419,11.7564615422369));
#351=CARTESIAN_POINT('Origin',(0.,0.519358246550419,8.17709542596251));
#352=CARTESIAN_POINT('',(0.,0.519358246550419,8.17709542596251));
#353=CARTESIAN_POINT('',(0.,0.480997602352419,11.7564615422369));
#354=CARTESIAN_POINT('',(-4.,0.519358246550419,8.17709542596251));
#355=CARTESIAN_POINT('',(-4.,0.480997602352419,11.7564615422369));
#356=CARTESIAN_POINT('',(0.,0.519358246550419,8.17709542596251));
#357=CARTESIAN_POINT('Origin',(0.,3.63836055478824,6.42063366020633));
#358=CARTESIAN_POINT('',(0.,3.63836055478824,6.42063366020633));
#359=CARTESIAN_POINT('',(0.,0.519358246550419,8.17709542596251));
#360=CARTESIAN_POINT('',(-4.,3.63836055478824,6.42063366020633));
#361=CARTESIAN_POINT('',(-4.,0.519358246550419,8.17709542596251));
#362=CARTESIAN_POINT('',(0.,3.63836055478824,6.42063366020633));
#363=CARTESIAN_POINT('Origin',(0.,6.71900221882808,8.24353801072449));
#364=CARTESIAN_POINT('',(0.,6.71900221882808,8.24353801072449));
#365=CARTESIAN_POINT('',(0.,3.63836055478824,6.42063366020633));
#366=CARTESIAN_POINT('',(-4.,6.71900221882808,8.24353801072449));
#367=CARTESIAN_POINT('',(-4.,3.63836055478824,6.42063366020633));
#368=CARTESIAN_POINT('',(0.,6.71900221882808,8.24353801072449));
#369=CARTESIAN_POINT('Origin',(0.,6.6806415746301,11.8229041269988));
#370=CARTESIAN_POINT('',(0.,6.71900221882808,8.24353801072449));
#371=CARTESIAN_POINT('',(-4.,6.71900221882808,8.24353801072449));
#372=CARTESIAN_POINT('Origin',(0.,3.59999991059025,9.99999977648068));
#373=CARTESIAN_POINT('Origin',(-4.,3.59999991059025,9.99999977648068));
#374=CARTESIAN_POINT('',(0.,0.,0.));
#375=UNCERTAINTY_MEASURE_WITH_UNIT(LENGTH_MEASURE(0.01),#381,
'DISTANCE_ACCURACY_VALUE',
'Maximum model space distance between geometric entities at asserted c
onnectivities');
#376=UNCERTAINTY_MEASURE_WITH_UNIT(LENGTH_MEASURE(0.01),#381,
'DISTANCE_ACCURACY_VALUE',
'Maximum model space distance between geometric entities at asserted c
onnectivities');
#377=UNCERTAINTY_MEASURE_WITH_UNIT(LENGTH_MEASURE(0.01),#381,
'DISTANCE_ACCURACY_VALUE',
'Maximum model space distance between geometric entities at asserted c
onnectivities');
#378=(
GEOMETRIC_REPRESENTATION_CONTEXT(3)
GLOBAL_UNCERTAINTY_ASSIGNED_CONTEXT((#375))
GLOBAL_UNIT_ASSIGNED_CONTEXT((#381,#383,#384))
REPRESENTATION_CONTEXT('','3D')
);
#379=(
GEOMETRIC_REPRESENTATION_CONTEXT(3)
GLOBAL_UNCERTAINTY_ASSIGNED_CONTEXT((#376))
GLOBAL_UNIT_ASSIGNED_CONTEXT((#381,#383,#384))
REPRESENTATION_CONTEXT('','3D')
);
#380=(
GEOMETRIC_REPRESENTATION_CONTEXT(3)
GLOBAL_UNCERTAINTY_ASSIGNED_CONTEXT((#377))
GLOBAL_UNIT_ASSIGNED_CONTEXT((#381,#383,#384))
REPRESENTATION_CONTEXT('','3D')
);
#381=(
LENGTH_UNIT()
NAMED_UNIT(*)
SI_UNIT(.MILLI.,.METRE.)
);
#382=(
LENGTH_UNIT()
NAMED_UNIT(*)
SI_UNIT($,.METRE.)
);
#383=(
NAMED_UNIT(*)
PLANE_ANGLE_UNIT()
SI_UNIT($,.RADIAN.)
);
#384=(
NAMED_UNIT(*)
SI_UNIT($,.STERADIAN.)
SOLID_ANGLE_UNIT()
);
#385=SHAPE_DEFINITION_REPRESENTATION(#387,#390);
#386=SHAPE_DEFINITION_REPRESENTATION(#388,#391);
#387=PRODUCT_DEFINITION_SHAPE('',$,#393);
#388=PRODUCT_DEFINITION_SHAPE('',$,#394);
#389=PRODUCT_DEFINITION_SHAPE($,$,#14);
#390=SHAPE_REPRESENTATION('',(#235,#253),#378);
#391=SHAPE_REPRESENTATION('',(#236),#379);
#392=PRODUCT_DEFINITION_CONTEXT('part definition',#400,'design');
#393=PRODUCT_DEFINITION('Motor Guide 3mm D','Motor Guide 3mm D v4',#395,
#392);
#394=PRODUCT_DEFINITION('Sproket Holder','Sproket Holder',#396,#392);
#395=PRODUCT_DEFINITION_FORMATION('',$,#402);
#396=PRODUCT_DEFINITION_FORMATION('',$,#403);
#397=PRODUCT_RELATED_PRODUCT_CATEGORY('Motor Guide 3mm D v4',
'Motor Guide 3mm D v4',(#402));
#398=PRODUCT_RELATED_PRODUCT_CATEGORY('Sproket Holder','Sproket Holder',
(#403));
#399=APPLICATION_PROTOCOL_DEFINITION('international standard',
'automotive_design',2009,#400);
#400=APPLICATION_CONTEXT(
'Core Data for Automotive Mechanical Design Process');
#401=PRODUCT_CONTEXT('part definition',#400,'mechanical');
#402=PRODUCT('Motor Guide 3mm D','Motor Guide 3mm D v4',$,(#401));
#403=PRODUCT('Sproket Holder','Sproket Holder',$,(#401));
#404=PRESENTATION_STYLE_ASSIGNMENT((#405));
#405=SURFACE_STYLE_USAGE(.BOTH.,#406);
#406=SURFACE_SIDE_STYLE('',(#407));
#407=SURFACE_STYLE_FILL_AREA(#408);
#408=FILL_AREA_STYLE('Steel - Satin',(#409));
#409=FILL_AREA_STYLE_COLOUR('Steel - Satin',#410);
#410=COLOUR_RGB('Steel - Satin',0.627450980392157,0.627450980392157,0.627450980392157);
ENDSEC;
END-ISO-10303-21;
