ISO-10303-21;
HEADER;
/* Generated by software containing ST-Developer
 * from STEP Tools, Inc. (www.steptools.com) 
 */

FILE_DESCRIPTION(
/* description */ (''),
/* implementation_level */ '2;1');

FILE_NAME(
/* name */ 'Motor Guide 2mm.step',
/* time_stamp */ '2026-07-11T23:05:18+09:00',
/* author */ (''),
/* organization */ (''),
/* preprocessor_version */ 'ST-DEVELOPER v20.1',
/* originating_system */ 'Autodesk Translation Framework v15.8.0.0',
/* authorisation */ '');

FILE_SCHEMA (('AUTOMOTIVE_DESIGN { 1 0 10303 214 3 1 1 }'));
ENDSEC;

DATA;
#10=MECHANICAL_DESIGN_GEOMETRIC_PRESENTATION_REPRESENTATION('',(#17),#347);
#11=ITEM_DEFINED_TRANSFORMATION($,$,#215,#231);
#12=(
REPRESENTATION_RELATIONSHIP($,$,#358,#357)
REPRESENTATION_RELATIONSHIP_WITH_TRANSFORMATION(#11)
SHAPE_REPRESENTATION_RELATIONSHIP()
);
#13=CONTEXT_DEPENDENT_SHAPE_REPRESENTATION(#12,#356);
#14=NEXT_ASSEMBLY_USAGE_OCCURRENCE('Sproket Holder:1',
'Sproket Holder:1','Sproket Holder:1',#360,#361,'Sproket Holder:1');
#15=SHAPE_REPRESENTATION_RELATIONSHIP('SRR','None',#358,#16);
#16=ADVANCED_BREP_SHAPE_REPRESENTATION('',(#18),#346);
#17=STYLED_ITEM('',(#371),#18);
#18=MANIFOLD_SOLID_BREP('Body1',#201);
#19=FACE_BOUND('',#44,.T.);
#20=FACE_BOUND('',#53,.T.);
#21=FACE_BOUND('',#55,.T.);
#22=PLANE('',#219);
#23=PLANE('',#223);
#24=PLANE('',#224);
#25=PLANE('',#225);
#26=PLANE('',#226);
#27=PLANE('',#227);
#28=PLANE('',#228);
#29=PLANE('',#229);
#30=PLANE('',#230);
#31=FACE_OUTER_BOUND('',#42,.T.);
#32=FACE_OUTER_BOUND('',#43,.T.);
#33=FACE_OUTER_BOUND('',#45,.T.);
#34=FACE_OUTER_BOUND('',#46,.T.);
#35=FACE_OUTER_BOUND('',#47,.T.);
#36=FACE_OUTER_BOUND('',#48,.T.);
#37=FACE_OUTER_BOUND('',#49,.T.);
#38=FACE_OUTER_BOUND('',#50,.T.);
#39=FACE_OUTER_BOUND('',#51,.T.);
#40=FACE_OUTER_BOUND('',#52,.T.);
#41=FACE_OUTER_BOUND('',#54,.T.);
#42=EDGE_LOOP('',(#140,#141,#142,#143));
#43=EDGE_LOOP('',(#144));
#44=EDGE_LOOP('',(#145));
#45=EDGE_LOOP('',(#146,#147,#148,#149));
#46=EDGE_LOOP('',(#150,#151,#152,#153));
#47=EDGE_LOOP('',(#154,#155,#156,#157));
#48=EDGE_LOOP('',(#158,#159,#160,#161));
#49=EDGE_LOOP('',(#162,#163,#164,#165));
#50=EDGE_LOOP('',(#166,#167,#168,#169));
#51=EDGE_LOOP('',(#170,#171,#172,#173));
#52=EDGE_LOOP('',(#174,#175,#176,#177,#178,#179));
#53=EDGE_LOOP('',(#180));
#54=EDGE_LOOP('',(#181,#182,#183,#184,#185,#186));
#55=EDGE_LOOP('',(#187));
#56=LINE('',#294,#76);
#57=LINE('',#302,#77);
#58=LINE('',#306,#78);
#59=LINE('',#308,#79);
#60=LINE('',#310,#80);
#61=LINE('',#311,#81);
#62=LINE('',#314,#82);
#63=LINE('',#316,#83);
#64=LINE('',#317,#84);
#65=LINE('',#320,#85);
#66=LINE('',#322,#86);
#67=LINE('',#323,#87);
#68=LINE('',#326,#88);
#69=LINE('',#328,#89);
#70=LINE('',#329,#90);
#71=LINE('',#332,#91);
#72=LINE('',#334,#92);
#73=LINE('',#335,#93);
#74=LINE('',#337,#94);
#75=LINE('',#338,#95);
#76=VECTOR('',#240,2.5);
#77=VECTOR('',#251,1.1);
#78=VECTOR('',#254,10.);
#79=VECTOR('',#255,10.);
#80=VECTOR('',#256,10.);
#81=VECTOR('',#257,10.);
#82=VECTOR('',#260,10.);
#83=VECTOR('',#261,10.);
#84=VECTOR('',#262,10.);
#85=VECTOR('',#265,10.);
#86=VECTOR('',#266,10.);
#87=VECTOR('',#267,10.);
#88=VECTOR('',#270,10.);
#89=VECTOR('',#271,10.);
#90=VECTOR('',#272,10.);
#91=VECTOR('',#275,10.);
#92=VECTOR('',#276,10.);
#93=VECTOR('',#277,10.);
#94=VECTOR('',#280,10.);
#95=VECTOR('',#281,10.);
#96=CIRCLE('',#217,2.5);
#97=CIRCLE('',#218,2.5);
#98=CIRCLE('',#220,1.1);
#99=CIRCLE('',#222,1.1);
#100=VERTEX_POINT('',#291);
#101=VERTEX_POINT('',#293);
#102=VERTEX_POINT('',#297);
#103=VERTEX_POINT('',#300);
#104=VERTEX_POINT('',#304);
#105=VERTEX_POINT('',#305);
#106=VERTEX_POINT('',#307);
#107=VERTEX_POINT('',#309);
#108=VERTEX_POINT('',#313);
#109=VERTEX_POINT('',#315);
#110=VERTEX_POINT('',#319);
#111=VERTEX_POINT('',#321);
#112=VERTEX_POINT('',#325);
#113=VERTEX_POINT('',#327);
#114=VERTEX_POINT('',#331);
#115=VERTEX_POINT('',#333);
#116=EDGE_CURVE('',#100,#100,#96,.T.);
#117=EDGE_CURVE('',#100,#101,#56,.T.);
#118=EDGE_CURVE('',#101,#101,#97,.T.);
#119=EDGE_CURVE('',#102,#102,#98,.T.);
#120=EDGE_CURVE('',#103,#103,#99,.T.);
#121=EDGE_CURVE('',#103,#102,#57,.T.);
#122=EDGE_CURVE('',#104,#105,#58,.T.);
#123=EDGE_CURVE('',#104,#106,#59,.T.);
#124=EDGE_CURVE('',#107,#106,#60,.T.);
#125=EDGE_CURVE('',#105,#107,#61,.T.);
#126=EDGE_CURVE('',#105,#108,#62,.T.);
#127=EDGE_CURVE('',#109,#107,#63,.T.);
#128=EDGE_CURVE('',#108,#109,#64,.T.);
#129=EDGE_CURVE('',#108,#110,#65,.T.);
#130=EDGE_CURVE('',#111,#109,#66,.T.);
#131=EDGE_CURVE('',#110,#111,#67,.T.);
#132=EDGE_CURVE('',#110,#112,#68,.T.);
#133=EDGE_CURVE('',#113,#111,#69,.T.);
#134=EDGE_CURVE('',#112,#113,#70,.T.);
#135=EDGE_CURVE('',#112,#114,#71,.T.);
#136=EDGE_CURVE('',#115,#113,#72,.T.);
#137=EDGE_CURVE('',#114,#115,#73,.T.);
#138=EDGE_CURVE('',#114,#104,#74,.T.);
#139=EDGE_CURVE('',#106,#115,#75,.T.);
#140=ORIENTED_EDGE('',*,*,#116,.F.);
#141=ORIENTED_EDGE('',*,*,#117,.T.);
#142=ORIENTED_EDGE('',*,*,#118,.F.);
#143=ORIENTED_EDGE('',*,*,#117,.F.);
#144=ORIENTED_EDGE('',*,*,#116,.T.);
#145=ORIENTED_EDGE('',*,*,#119,.T.);
#146=ORIENTED_EDGE('',*,*,#120,.F.);
#147=ORIENTED_EDGE('',*,*,#121,.T.);
#148=ORIENTED_EDGE('',*,*,#119,.F.);
#149=ORIENTED_EDGE('',*,*,#121,.F.);
#150=ORIENTED_EDGE('',*,*,#122,.F.);
#151=ORIENTED_EDGE('',*,*,#123,.T.);
#152=ORIENTED_EDGE('',*,*,#124,.F.);
#153=ORIENTED_EDGE('',*,*,#125,.F.);
#154=ORIENTED_EDGE('',*,*,#126,.F.);
#155=ORIENTED_EDGE('',*,*,#125,.T.);
#156=ORIENTED_EDGE('',*,*,#127,.F.);
#157=ORIENTED_EDGE('',*,*,#128,.F.);
#158=ORIENTED_EDGE('',*,*,#129,.F.);
#159=ORIENTED_EDGE('',*,*,#128,.T.);
#160=ORIENTED_EDGE('',*,*,#130,.F.);
#161=ORIENTED_EDGE('',*,*,#131,.F.);
#162=ORIENTED_EDGE('',*,*,#132,.F.);
#163=ORIENTED_EDGE('',*,*,#131,.T.);
#164=ORIENTED_EDGE('',*,*,#133,.F.);
#165=ORIENTED_EDGE('',*,*,#134,.F.);
#166=ORIENTED_EDGE('',*,*,#135,.F.);
#167=ORIENTED_EDGE('',*,*,#134,.T.);
#168=ORIENTED_EDGE('',*,*,#136,.F.);
#169=ORIENTED_EDGE('',*,*,#137,.F.);
#170=ORIENTED_EDGE('',*,*,#138,.F.);
#171=ORIENTED_EDGE('',*,*,#137,.T.);
#172=ORIENTED_EDGE('',*,*,#139,.F.);
#173=ORIENTED_EDGE('',*,*,#123,.F.);
#174=ORIENTED_EDGE('',*,*,#138,.T.);
#175=ORIENTED_EDGE('',*,*,#122,.T.);
#176=ORIENTED_EDGE('',*,*,#126,.T.);
#177=ORIENTED_EDGE('',*,*,#129,.T.);
#178=ORIENTED_EDGE('',*,*,#132,.T.);
#179=ORIENTED_EDGE('',*,*,#135,.T.);
#180=ORIENTED_EDGE('',*,*,#118,.T.);
#181=ORIENTED_EDGE('',*,*,#139,.T.);
#182=ORIENTED_EDGE('',*,*,#136,.T.);
#183=ORIENTED_EDGE('',*,*,#133,.T.);
#184=ORIENTED_EDGE('',*,*,#130,.T.);
#185=ORIENTED_EDGE('',*,*,#127,.T.);
#186=ORIENTED_EDGE('',*,*,#124,.T.);
#187=ORIENTED_EDGE('',*,*,#120,.T.);
#188=CYLINDRICAL_SURFACE('',#216,2.5);
#189=CYLINDRICAL_SURFACE('',#221,1.1);
#190=ADVANCED_FACE('',(#31),#188,.T.);
#191=ADVANCED_FACE('',(#32,#19),#22,.T.);
#192=ADVANCED_FACE('',(#33),#189,.F.);
#193=ADVANCED_FACE('',(#34),#23,.T.);
#194=ADVANCED_FACE('',(#35),#24,.T.);
#195=ADVANCED_FACE('',(#36),#25,.T.);
#196=ADVANCED_FACE('',(#37),#26,.T.);
#197=ADVANCED_FACE('',(#38),#27,.T.);
#198=ADVANCED_FACE('',(#39),#28,.T.);
#199=ADVANCED_FACE('',(#40,#20),#29,.T.);
#200=ADVANCED_FACE('',(#41,#21),#30,.F.);
#201=CLOSED_SHELL('',(#190,#191,#192,#193,#194,#195,#196,#197,#198,#199,
#200));
#202=DERIVED_UNIT_ELEMENT(#204,1.);
#203=DERIVED_UNIT_ELEMENT(#349,-3.);
#204=(
MASS_UNIT()
NAMED_UNIT(*)
SI_UNIT(.KILO.,.GRAM.)
);
#205=DERIVED_UNIT((#202,#203));
#206=MEASURE_REPRESENTATION_ITEM('density measure',
POSITIVE_RATIO_MEASURE(7850.),#205);
#207=PROPERTY_DEFINITION_REPRESENTATION(#212,#209);
#208=PROPERTY_DEFINITION_REPRESENTATION(#213,#210);
#209=REPRESENTATION('material name',(#211),#346);
#210=REPRESENTATION('density',(#206),#346);
#211=DESCRIPTIVE_REPRESENTATION_ITEM('Steel','Steel');
#212=PROPERTY_DEFINITION('material property','material name',#361);
#213=PROPERTY_DEFINITION('material property','density of part',#361);
#214=AXIS2_PLACEMENT_3D('',#288,#232,#233);
#215=AXIS2_PLACEMENT_3D('',#289,#234,#235);
#216=AXIS2_PLACEMENT_3D('',#290,#236,#237);
#217=AXIS2_PLACEMENT_3D('',#292,#238,#239);
#218=AXIS2_PLACEMENT_3D('',#295,#241,#242);
#219=AXIS2_PLACEMENT_3D('',#296,#243,#244);
#220=AXIS2_PLACEMENT_3D('',#298,#245,#246);
#221=AXIS2_PLACEMENT_3D('',#299,#247,#248);
#222=AXIS2_PLACEMENT_3D('',#301,#249,#250);
#223=AXIS2_PLACEMENT_3D('',#303,#252,#253);
#224=AXIS2_PLACEMENT_3D('',#312,#258,#259);
#225=AXIS2_PLACEMENT_3D('',#318,#263,#264);
#226=AXIS2_PLACEMENT_3D('',#324,#268,#269);
#227=AXIS2_PLACEMENT_3D('',#330,#273,#274);
#228=AXIS2_PLACEMENT_3D('',#336,#278,#279);
#229=AXIS2_PLACEMENT_3D('',#339,#282,#283);
#230=AXIS2_PLACEMENT_3D('',#340,#284,#285);
#231=AXIS2_PLACEMENT_3D('',#341,#286,#287);
#232=DIRECTION('axis',(0.,0.,1.));
#233=DIRECTION('refdir',(1.,0.,0.));
#234=DIRECTION('axis',(0.,0.,1.));
#235=DIRECTION('refdir',(1.,0.,0.));
#236=DIRECTION('center_axis',(1.,0.,0.));
#237=DIRECTION('ref_axis',(0.,0.,-1.));
#238=DIRECTION('center_axis',(1.,0.,0.));
#239=DIRECTION('ref_axis',(0.,0.,-1.));
#240=DIRECTION('',(-1.,0.,0.));
#241=DIRECTION('center_axis',(-1.,0.,0.));
#242=DIRECTION('ref_axis',(0.,0.,-1.));
#243=DIRECTION('center_axis',(1.,0.,0.));
#244=DIRECTION('ref_axis',(0.,0.,-1.));
#245=DIRECTION('center_axis',(-1.,0.,0.));
#246=DIRECTION('ref_axis',(0.,0.,-1.));
#247=DIRECTION('center_axis',(-1.,0.,0.));
#248=DIRECTION('ref_axis',(0.,0.,-1.));
#249=DIRECTION('center_axis',(1.,0.,0.));
#250=DIRECTION('ref_axis',(0.,0.,-1.));
#251=DIRECTION('',(1.,0.,0.));
#252=DIRECTION('center_axis',(0.,0.490690487070829,0.87133394625608));
#253=DIRECTION('ref_axis',(0.,0.871333946256079,-0.490690487070829));
#254=DIRECTION('',(0.,-0.871333946256079,0.490690487070829));
#255=DIRECTION('',(-1.,0.,0.));
#256=DIRECTION('',(0.,0.871333946256079,-0.490690487070829));
#257=DIRECTION('',(-1.,0.,0.));
#258=DIRECTION('center_axis',(0.,-0.509252089102095,0.860617400326738));
#259=DIRECTION('ref_axis',(0.,0.860617400326738,0.509252089102095));
#260=DIRECTION('',(0.,-0.860617400326738,-0.509252089102095));
#261=DIRECTION('',(0.,0.860617400326738,0.509252089102095));
#262=DIRECTION('',(-1.,0.,0.));
#263=DIRECTION('center_axis',(0.,-0.999942576172924,-0.0107165459293465));
#264=DIRECTION('ref_axis',(0.,-0.0107165459293465,0.999942576172924));
#265=DIRECTION('',(0.,0.0107165459293465,-0.999942576172924));
#266=DIRECTION('',(0.,-0.0107165459293465,0.999942576172924));
#267=DIRECTION('',(-1.,0.,0.));
#268=DIRECTION('center_axis',(0.,-0.490690487070829,-0.87133394625608));
#269=DIRECTION('ref_axis',(0.,-0.87133394625608,0.490690487070829));
#270=DIRECTION('',(0.,0.87133394625608,-0.490690487070829));
#271=DIRECTION('',(0.,-0.87133394625608,0.490690487070829));
#272=DIRECTION('',(-1.,0.,0.));
#273=DIRECTION('center_axis',(0.,0.509252089102094,-0.860617400326738));
#274=DIRECTION('ref_axis',(0.,-0.860617400326738,-0.509252089102094));
#275=DIRECTION('',(0.,0.860617400326738,0.509252089102094));
#276=DIRECTION('',(0.,-0.860617400326738,-0.509252089102094));
#277=DIRECTION('',(-1.,0.,0.));
#278=DIRECTION('center_axis',(0.,0.999942576172924,0.0107165459293413));
#279=DIRECTION('ref_axis',(0.,0.0107165459293413,-0.999942576172924));
#280=DIRECTION('',(0.,-0.0107165459293413,0.999942576172924));
#281=DIRECTION('',(0.,0.0107165459293413,-0.999942576172924));
#282=DIRECTION('center_axis',(1.,0.,0.));
#283=DIRECTION('ref_axis',(0.,0.,-1.));
#284=DIRECTION('center_axis',(1.,0.,0.));
#285=DIRECTION('ref_axis',(0.,0.,-1.));
#286=DIRECTION('',(0.,0.,1.));
#287=DIRECTION('',(1.,0.,0.));
#288=CARTESIAN_POINT('',(0.,0.,0.));
#289=CARTESIAN_POINT('',(0.,0.,0.));
#290=CARTESIAN_POINT('Origin',(0.,3.59999991059301,9.99999977648224));
#291=CARTESIAN_POINT('',(3.,3.59999991059301,12.4999997764822));
#292=CARTESIAN_POINT('Origin',(3.,3.59999991059301,9.99999977648224));
#293=CARTESIAN_POINT('',(0.,3.59999991059301,12.4999997764822));
#294=CARTESIAN_POINT('',(0.,3.59999991059301,12.4999997764822));
#295=CARTESIAN_POINT('Origin',(0.,3.59999991059301,9.99999977648224));
#296=CARTESIAN_POINT('Origin',(3.,3.59999991059301,9.99999977648224));
#297=CARTESIAN_POINT('',(3.,3.59999991059471,11.099999776485));
#298=CARTESIAN_POINT('Origin',(3.,3.59999991059471,9.99999977648496));
#299=CARTESIAN_POINT('Origin',(0.,3.59999991059471,9.99999977648496));
#300=CARTESIAN_POINT('',(-4.,3.59999991059471,11.099999776485));
#301=CARTESIAN_POINT('Origin',(-4.,3.59999991059471,9.99999977648496));
#302=CARTESIAN_POINT('',(0.,3.59999991059471,11.099999776485));
#303=CARTESIAN_POINT('Origin',(0.,3.56163926639227,13.579365892755));
#304=CARTESIAN_POINT('',(0.,6.6806415746301,11.8229041269988));
#305=CARTESIAN_POINT('',(0.,3.56163926639227,13.579365892755));
#306=CARTESIAN_POINT('',(0.,6.6806415746301,11.8229041269988));
#307=CARTESIAN_POINT('',(-4.,6.6806415746301,11.8229041269988));
#308=CARTESIAN_POINT('',(0.,6.6806415746301,11.8229041269988));
#309=CARTESIAN_POINT('',(-4.,3.56163926639227,13.579365892755));
#310=CARTESIAN_POINT('',(-4.,6.6806415746301,11.8229041269988));
#311=CARTESIAN_POINT('',(0.,3.56163926639227,13.579365892755));
#312=CARTESIAN_POINT('Origin',(0.,0.480997602352419,11.7564615422369));
#313=CARTESIAN_POINT('',(0.,0.480997602352419,11.7564615422369));
#314=CARTESIAN_POINT('',(0.,3.56163926639227,13.579365892755));
#315=CARTESIAN_POINT('',(-4.,0.480997602352419,11.7564615422369));
#316=CARTESIAN_POINT('',(-4.,3.56163926639227,13.579365892755));
#317=CARTESIAN_POINT('',(0.,0.480997602352419,11.7564615422369));
#318=CARTESIAN_POINT('Origin',(0.,0.519358246550419,8.17709542596251));
#319=CARTESIAN_POINT('',(0.,0.519358246550419,8.17709542596251));
#320=CARTESIAN_POINT('',(0.,0.480997602352419,11.7564615422369));
#321=CARTESIAN_POINT('',(-4.,0.519358246550419,8.17709542596251));
#322=CARTESIAN_POINT('',(-4.,0.480997602352419,11.7564615422369));
#323=CARTESIAN_POINT('',(0.,0.519358246550419,8.17709542596251));
#324=CARTESIAN_POINT('Origin',(0.,3.63836055478824,6.42063366020633));
#325=CARTESIAN_POINT('',(0.,3.63836055478824,6.42063366020633));
#326=CARTESIAN_POINT('',(0.,0.519358246550419,8.17709542596251));
#327=CARTESIAN_POINT('',(-4.,3.63836055478824,6.42063366020633));
#328=CARTESIAN_POINT('',(-4.,0.519358246550419,8.17709542596251));
#329=CARTESIAN_POINT('',(0.,3.63836055478824,6.42063366020633));
#330=CARTESIAN_POINT('Origin',(0.,6.71900221882808,8.24353801072449));
#331=CARTESIAN_POINT('',(0.,6.71900221882808,8.24353801072449));
#332=CARTESIAN_POINT('',(0.,3.63836055478824,6.42063366020633));
#333=CARTESIAN_POINT('',(-4.,6.71900221882808,8.24353801072449));
#334=CARTESIAN_POINT('',(-4.,3.63836055478824,6.42063366020633));
#335=CARTESIAN_POINT('',(0.,6.71900221882808,8.24353801072449));
#336=CARTESIAN_POINT('Origin',(0.,6.6806415746301,11.8229041269988));
#337=CARTESIAN_POINT('',(0.,6.71900221882808,8.24353801072449));
#338=CARTESIAN_POINT('',(-4.,6.71900221882808,8.24353801072449));
#339=CARTESIAN_POINT('Origin',(0.,3.59999991059025,9.99999977648068));
#340=CARTESIAN_POINT('Origin',(-4.,3.59999991059025,9.99999977648068));
#341=CARTESIAN_POINT('',(0.,0.,0.));
#342=UNCERTAINTY_MEASURE_WITH_UNIT(LENGTH_MEASURE(0.01),#348,
'DISTANCE_ACCURACY_VALUE',
'Maximum model space distance between geometric entities at asserted c
onnectivities');
#343=UNCERTAINTY_MEASURE_WITH_UNIT(LENGTH_MEASURE(0.01),#348,
'DISTANCE_ACCURACY_VALUE',
'Maximum model space distance between geometric entities at asserted c
onnectivities');
#344=UNCERTAINTY_MEASURE_WITH_UNIT(LENGTH_MEASURE(0.01),#348,
'DISTANCE_ACCURACY_VALUE',
'Maximum model space distance between geometric entities at asserted c
onnectivities');
#345=(
GEOMETRIC_REPRESENTATION_CONTEXT(3)
GLOBAL_UNCERTAINTY_ASSIGNED_CONTEXT((#342))
GLOBAL_UNIT_ASSIGNED_CONTEXT((#348,#350,#351))
REPRESENTATION_CONTEXT('','3D')
);
#346=(
GEOMETRIC_REPRESENTATION_CONTEXT(3)
GLOBAL_UNCERTAINTY_ASSIGNED_CONTEXT((#343))
GLOBAL_UNIT_ASSIGNED_CONTEXT((#348,#350,#351))
REPRESENTATION_CONTEXT('','3D')
);
#347=(
GEOMETRIC_REPRESENTATION_CONTEXT(3)
GLOBAL_UNCERTAINTY_ASSIGNED_CONTEXT((#344))
GLOBAL_UNIT_ASSIGNED_CONTEXT((#348,#350,#351))
REPRESENTATION_CONTEXT('','3D')
);
#348=(
LENGTH_UNIT()
NAMED_UNIT(*)
SI_UNIT(.MILLI.,.METRE.)
);
#349=(
LENGTH_UNIT()
NAMED_UNIT(*)
SI_UNIT($,.METRE.)
);
#350=(
NAMED_UNIT(*)
PLANE_ANGLE_UNIT()
SI_UNIT($,.RADIAN.)
);
#351=(
NAMED_UNIT(*)
SI_UNIT($,.STERADIAN.)
SOLID_ANGLE_UNIT()
);
#352=SHAPE_DEFINITION_REPRESENTATION(#354,#357);
#353=SHAPE_DEFINITION_REPRESENTATION(#355,#358);
#354=PRODUCT_DEFINITION_SHAPE('',$,#360);
#355=PRODUCT_DEFINITION_SHAPE('',$,#361);
#356=PRODUCT_DEFINITION_SHAPE($,$,#14);
#357=SHAPE_REPRESENTATION('',(#214,#231),#345);
#358=SHAPE_REPRESENTATION('',(#215),#346);
#359=PRODUCT_DEFINITION_CONTEXT('part definition',#367,'design');
#360=PRODUCT_DEFINITION('Motor Guide 2mm','Motor Guide 2mm v5',#362,#359);
#361=PRODUCT_DEFINITION('Sproket Holder','Sproket Holder',#363,#359);
#362=PRODUCT_DEFINITION_FORMATION('',$,#369);
#363=PRODUCT_DEFINITION_FORMATION('',$,#370);
#364=PRODUCT_RELATED_PRODUCT_CATEGORY('Motor Guide 2mm v5',
'Motor Guide 2mm v5',(#369));
#365=PRODUCT_RELATED_PRODUCT_CATEGORY('Sproket Holder','Sproket Holder',
(#370));
#366=APPLICATION_PROTOCOL_DEFINITION('international standard',
'automotive_design',2009,#367);
#367=APPLICATION_CONTEXT(
'Core Data for Automotive Mechanical Design Process');
#368=PRODUCT_CONTEXT('part definition',#367,'mechanical');
#369=PRODUCT('Motor Guide 2mm','Motor Guide 2mm v5',$,(#368));
#370=PRODUCT('Sproket Holder','Sproket Holder',$,(#368));
#371=PRESENTATION_STYLE_ASSIGNMENT((#372));
#372=SURFACE_STYLE_USAGE(.BOTH.,#373);
#373=SURFACE_SIDE_STYLE('',(#374));
#374=SURFACE_STYLE_FILL_AREA(#375);
#375=FILL_AREA_STYLE('Steel - Satin',(#376));
#376=FILL_AREA_STYLE_COLOUR('Steel - Satin',#377);
#377=COLOUR_RGB('Steel - Satin',0.627450980392157,0.627450980392157,0.627450980392157);
ENDSEC;
END-ISO-10303-21;
