ISO-10303-21;
HEADER;
/* Generated by software containing ST-Developer
 * from STEP Tools, Inc. (www.steptools.com) 
 */

FILE_DESCRIPTION(
/* description */ (''),
/* implementation_level */ '2;1');

FILE_NAME(
/* name */ 'PCB 3.2.step',
/* time_stamp */ '2026-07-11T23:05:39+09:00',
/* author */ (''),
/* organization */ (''),
/* preprocessor_version */ 'ST-DEVELOPER v20.1',
/* originating_system */ 'Autodesk Translation Framework v15.8.0.0',
/* authorisation */ '');

FILE_SCHEMA (('AUTOMOTIVE_DESIGN { 1 0 10303 214 3 1 1 }'));
ENDSEC;

DATA;
#10=MECHANICAL_DESIGN_GEOMETRIC_PRESENTATION_REPRESENTATION('',(#13),#706);
#11=SHAPE_REPRESENTATION_RELATIONSHIP('SRR','None',#713,#12);
#12=ADVANCED_BREP_SHAPE_REPRESENTATION('',(#14),#705);
#13=STYLED_ITEM('',(#722),#14);
#14=MANIFOLD_SOLID_BREP('Body1',#441);
#15=FACE_BOUND('',#41,.T.);
#16=FACE_BOUND('',#62,.T.);
#17=FACE_OUTER_BOUND('',#39,.T.);
#18=FACE_OUTER_BOUND('',#40,.T.);
#19=FACE_OUTER_BOUND('',#42,.T.);
#20=FACE_OUTER_BOUND('',#43,.T.);
#21=FACE_OUTER_BOUND('',#44,.T.);
#22=FACE_OUTER_BOUND('',#45,.T.);
#23=FACE_OUTER_BOUND('',#46,.T.);
#24=FACE_OUTER_BOUND('',#47,.T.);
#25=FACE_OUTER_BOUND('',#48,.T.);
#26=FACE_OUTER_BOUND('',#49,.T.);
#27=FACE_OUTER_BOUND('',#50,.T.);
#28=FACE_OUTER_BOUND('',#51,.T.);
#29=FACE_OUTER_BOUND('',#52,.T.);
#30=FACE_OUTER_BOUND('',#53,.T.);
#31=FACE_OUTER_BOUND('',#54,.T.);
#32=FACE_OUTER_BOUND('',#55,.T.);
#33=FACE_OUTER_BOUND('',#56,.T.);
#34=FACE_OUTER_BOUND('',#57,.T.);
#35=FACE_OUTER_BOUND('',#58,.T.);
#36=FACE_OUTER_BOUND('',#59,.T.);
#37=FACE_OUTER_BOUND('',#60,.T.);
#38=FACE_OUTER_BOUND('',#61,.T.);
#39=EDGE_LOOP('',(#279,#280,#281,#282));
#40=EDGE_LOOP('',(#283,#284,#285,#286));
#41=EDGE_LOOP('',(#287,#288,#289,#290,#291));
#42=EDGE_LOOP('',(#292,#293,#294,#295,#296,#297));
#43=EDGE_LOOP('',(#298,#299,#300,#301));
#44=EDGE_LOOP('',(#302,#303,#304,#305));
#45=EDGE_LOOP('',(#306,#307,#308,#309,#310,#311,#312,#313));
#46=EDGE_LOOP('',(#314,#315,#316,#317));
#47=EDGE_LOOP('',(#318,#319,#320,#321));
#48=EDGE_LOOP('',(#322,#323,#324,#325));
#49=EDGE_LOOP('',(#326,#327,#328,#329));
#50=EDGE_LOOP('',(#330,#331,#332,#333,#334,#335));
#51=EDGE_LOOP('',(#336,#337,#338,#339,#340));
#52=EDGE_LOOP('',(#341,#342,#343,#344));
#53=EDGE_LOOP('',(#345,#346,#347,#348));
#54=EDGE_LOOP('',(#349,#350,#351,#352,#353,#354,#355,#356));
#55=EDGE_LOOP('',(#357,#358,#359,#360));
#56=EDGE_LOOP('',(#361,#362,#363,#364));
#57=EDGE_LOOP('',(#365,#366,#367,#368));
#58=EDGE_LOOP('',(#369,#370,#371,#372));
#59=EDGE_LOOP('',(#373,#374,#375,#376));
#60=EDGE_LOOP('',(#377,#378,#379,#380));
#61=EDGE_LOOP('',(#381,#382,#383,#384));
#62=EDGE_LOOP('',(#385,#386,#387,#388,#389,#390,#391,#392,#393,#394,#395,
#396));
#63=LINE('',#586,#122);
#64=LINE('',#588,#123);
#65=LINE('',#590,#124);
#66=LINE('',#591,#125);
#67=LINE('',#595,#126);
#68=LINE('',#597,#127);
#69=LINE('',#599,#128);
#70=LINE('',#600,#129);
#71=LINE('',#603,#130);
#72=LINE('',#605,#131);
#73=LINE('',#606,#132);
#74=LINE('',#607,#133);
#75=LINE('',#611,#134);
#76=LINE('',#613,#135);
#77=LINE('',#615,#136);
#78=LINE('',#617,#137);
#79=LINE('',#619,#138);
#80=LINE('',#620,#139);
#81=LINE('',#623,#140);
#82=LINE('',#625,#141);
#83=LINE('',#626,#142);
#84=LINE('',#630,#143);
#85=LINE('',#632,#144);
#86=LINE('',#634,#145);
#87=LINE('',#635,#146);
#88=LINE('',#639,#147);
#89=LINE('',#640,#148);
#90=LINE('',#641,#149);
#91=LINE('',#642,#150);
#92=LINE('',#643,#151);
#93=LINE('',#646,#152);
#94=LINE('',#647,#153);
#95=LINE('',#650,#154);
#96=LINE('',#651,#155);
#97=LINE('',#654,#156);
#98=LINE('',#655,#157);
#99=LINE('',#658,#158);
#100=LINE('',#659,#159);
#101=LINE('',#662,#160);
#102=LINE('',#663,#161);
#103=LINE('',#666,#162);
#104=LINE('',#667,#163);
#105=LINE('',#670,#164);
#106=LINE('',#671,#165);
#107=LINE('',#674,#166);
#108=LINE('',#675,#167);
#109=LINE('',#678,#168);
#110=LINE('',#679,#169);
#111=LINE('',#682,#170);
#112=LINE('',#683,#171);
#113=LINE('',#685,#172);
#114=LINE('',#689,#173);
#115=LINE('',#690,#174);
#116=LINE('',#691,#175);
#117=LINE('',#694,#176);
#118=LINE('',#695,#177);
#119=LINE('',#698,#178);
#120=LINE('',#699,#179);
#121=LINE('',#701,#180);
#122=VECTOR('',#481,10.);
#123=VECTOR('',#482,10.);
#124=VECTOR('',#483,10.);
#125=VECTOR('',#484,10.);
#126=VECTOR('',#487,10.);
#127=VECTOR('',#488,10.);
#128=VECTOR('',#489,10.);
#129=VECTOR('',#490,10.);
#130=VECTOR('',#491,10.);
#131=VECTOR('',#492,10.);
#132=VECTOR('',#493,10.);
#133=VECTOR('',#494,10.);
#134=VECTOR('',#497,10.);
#135=VECTOR('',#498,10.);
#136=VECTOR('',#499,10.);
#137=VECTOR('',#500,10.);
#138=VECTOR('',#501,10.);
#139=VECTOR('',#502,10.);
#140=VECTOR('',#505,10.);
#141=VECTOR('',#506,10.);
#142=VECTOR('',#507,10.);
#143=VECTOR('',#510,10.);
#144=VECTOR('',#511,10.);
#145=VECTOR('',#512,10.);
#146=VECTOR('',#513,10.);
#147=VECTOR('',#516,10.);
#148=VECTOR('',#517,10.);
#149=VECTOR('',#518,10.);
#150=VECTOR('',#519,10.);
#151=VECTOR('',#520,10.);
#152=VECTOR('',#523,10.);
#153=VECTOR('',#524,10.);
#154=VECTOR('',#527,10.);
#155=VECTOR('',#528,10.);
#156=VECTOR('',#531,10.);
#157=VECTOR('',#532,10.);
#158=VECTOR('',#535,10.);
#159=VECTOR('',#536,10.);
#160=VECTOR('',#539,10.);
#161=VECTOR('',#540,10.);
#162=VECTOR('',#543,10.);
#163=VECTOR('',#544,10.);
#164=VECTOR('',#547,10.);
#165=VECTOR('',#548,10.);
#166=VECTOR('',#551,10.);
#167=VECTOR('',#552,10.);
#168=VECTOR('',#555,10.);
#169=VECTOR('',#556,10.);
#170=VECTOR('',#559,10.);
#171=VECTOR('',#560,10.);
#172=VECTOR('',#563,10.);
#173=VECTOR('',#566,10.);
#174=VECTOR('',#567,10.);
#175=VECTOR('',#568,10.);
#176=VECTOR('',#571,10.);
#177=VECTOR('',#572,10.);
#178=VECTOR('',#575,10.);
#179=VECTOR('',#576,10.);
#180=VECTOR('',#579,10.);
#181=VERTEX_POINT('',#584);
#182=VERTEX_POINT('',#585);
#183=VERTEX_POINT('',#587);
#184=VERTEX_POINT('',#589);
#185=VERTEX_POINT('',#593);
#186=VERTEX_POINT('',#594);
#187=VERTEX_POINT('',#596);
#188=VERTEX_POINT('',#598);
#189=VERTEX_POINT('',#601);
#190=VERTEX_POINT('',#602);
#191=VERTEX_POINT('',#604);
#192=VERTEX_POINT('',#609);
#193=VERTEX_POINT('',#610);
#194=VERTEX_POINT('',#612);
#195=VERTEX_POINT('',#614);
#196=VERTEX_POINT('',#616);
#197=VERTEX_POINT('',#618);
#198=VERTEX_POINT('',#622);
#199=VERTEX_POINT('',#624);
#200=VERTEX_POINT('',#628);
#201=VERTEX_POINT('',#629);
#202=VERTEX_POINT('',#631);
#203=VERTEX_POINT('',#633);
#204=VERTEX_POINT('',#637);
#205=VERTEX_POINT('',#638);
#206=VERTEX_POINT('',#645);
#207=VERTEX_POINT('',#649);
#208=VERTEX_POINT('',#653);
#209=VERTEX_POINT('',#657);
#210=VERTEX_POINT('',#661);
#211=VERTEX_POINT('',#665);
#212=VERTEX_POINT('',#669);
#213=VERTEX_POINT('',#673);
#214=VERTEX_POINT('',#677);
#215=VERTEX_POINT('',#681);
#216=VERTEX_POINT('',#687);
#217=VERTEX_POINT('',#688);
#218=VERTEX_POINT('',#693);
#219=VERTEX_POINT('',#697);
#220=EDGE_CURVE('',#181,#182,#63,.T.);
#221=EDGE_CURVE('',#181,#183,#64,.T.);
#222=EDGE_CURVE('',#184,#183,#65,.T.);
#223=EDGE_CURVE('',#182,#184,#66,.T.);
#224=EDGE_CURVE('',#185,#186,#67,.T.);
#225=EDGE_CURVE('',#186,#187,#68,.T.);
#226=EDGE_CURVE('',#187,#188,#69,.T.);
#227=EDGE_CURVE('',#188,#185,#70,.T.);
#228=EDGE_CURVE('',#189,#190,#71,.T.);
#229=EDGE_CURVE('',#190,#191,#72,.T.);
#230=EDGE_CURVE('',#191,#184,#73,.T.);
#231=EDGE_CURVE('',#183,#189,#74,.T.);
#232=EDGE_CURVE('',#192,#193,#75,.T.);
#233=EDGE_CURVE('',#193,#194,#76,.T.);
#234=EDGE_CURVE('',#194,#195,#77,.T.);
#235=EDGE_CURVE('',#195,#196,#78,.T.);
#236=EDGE_CURVE('',#196,#197,#79,.T.);
#237=EDGE_CURVE('',#197,#192,#80,.T.);
#238=EDGE_CURVE('',#182,#198,#81,.T.);
#239=EDGE_CURVE('',#198,#199,#82,.T.);
#240=EDGE_CURVE('',#199,#181,#83,.T.);
#241=EDGE_CURVE('',#200,#201,#84,.T.);
#242=EDGE_CURVE('',#201,#202,#85,.T.);
#243=EDGE_CURVE('',#202,#203,#86,.T.);
#244=EDGE_CURVE('',#203,#200,#87,.T.);
#245=EDGE_CURVE('',#204,#205,#88,.T.);
#246=EDGE_CURVE('',#205,#202,#89,.T.);
#247=EDGE_CURVE('',#201,#191,#90,.T.);
#248=EDGE_CURVE('',#193,#190,#91,.T.);
#249=EDGE_CURVE('',#204,#192,#92,.T.);
#250=EDGE_CURVE('',#206,#204,#93,.T.);
#251=EDGE_CURVE('',#206,#197,#94,.T.);
#252=EDGE_CURVE('',#207,#206,#95,.T.);
#253=EDGE_CURVE('',#207,#196,#96,.T.);
#254=EDGE_CURVE('',#208,#207,#97,.T.);
#255=EDGE_CURVE('',#208,#195,#98,.T.);
#256=EDGE_CURVE('',#209,#208,#99,.T.);
#257=EDGE_CURVE('',#209,#194,#100,.T.);
#258=EDGE_CURVE('',#210,#209,#101,.T.);
#259=EDGE_CURVE('',#210,#189,#102,.T.);
#260=EDGE_CURVE('',#211,#210,#103,.T.);
#261=EDGE_CURVE('',#211,#181,#104,.T.);
#262=EDGE_CURVE('',#212,#211,#105,.T.);
#263=EDGE_CURVE('',#212,#199,#106,.T.);
#264=EDGE_CURVE('',#213,#212,#107,.T.);
#265=EDGE_CURVE('',#213,#198,#108,.T.);
#266=EDGE_CURVE('',#214,#213,#109,.T.);
#267=EDGE_CURVE('',#214,#200,#110,.T.);
#268=EDGE_CURVE('',#215,#214,#111,.T.);
#269=EDGE_CURVE('',#215,#203,#112,.T.);
#270=EDGE_CURVE('',#205,#215,#113,.T.);
#271=EDGE_CURVE('',#216,#217,#114,.T.);
#272=EDGE_CURVE('',#216,#185,#115,.T.);
#273=EDGE_CURVE('',#217,#188,#116,.T.);
#274=EDGE_CURVE('',#217,#218,#117,.T.);
#275=EDGE_CURVE('',#218,#187,#118,.T.);
#276=EDGE_CURVE('',#218,#219,#119,.T.);
#277=EDGE_CURVE('',#219,#186,#120,.T.);
#278=EDGE_CURVE('',#219,#216,#121,.T.);
#279=ORIENTED_EDGE('',*,*,#220,.F.);
#280=ORIENTED_EDGE('',*,*,#221,.T.);
#281=ORIENTED_EDGE('',*,*,#222,.F.);
#282=ORIENTED_EDGE('',*,*,#223,.F.);
#283=ORIENTED_EDGE('',*,*,#224,.T.);
#284=ORIENTED_EDGE('',*,*,#225,.T.);
#285=ORIENTED_EDGE('',*,*,#226,.T.);
#286=ORIENTED_EDGE('',*,*,#227,.T.);
#287=ORIENTED_EDGE('',*,*,#228,.T.);
#288=ORIENTED_EDGE('',*,*,#229,.T.);
#289=ORIENTED_EDGE('',*,*,#230,.T.);
#290=ORIENTED_EDGE('',*,*,#222,.T.);
#291=ORIENTED_EDGE('',*,*,#231,.T.);
#292=ORIENTED_EDGE('',*,*,#232,.T.);
#293=ORIENTED_EDGE('',*,*,#233,.T.);
#294=ORIENTED_EDGE('',*,*,#234,.T.);
#295=ORIENTED_EDGE('',*,*,#235,.T.);
#296=ORIENTED_EDGE('',*,*,#236,.T.);
#297=ORIENTED_EDGE('',*,*,#237,.T.);
#298=ORIENTED_EDGE('',*,*,#238,.T.);
#299=ORIENTED_EDGE('',*,*,#239,.T.);
#300=ORIENTED_EDGE('',*,*,#240,.T.);
#301=ORIENTED_EDGE('',*,*,#220,.T.);
#302=ORIENTED_EDGE('',*,*,#241,.T.);
#303=ORIENTED_EDGE('',*,*,#242,.T.);
#304=ORIENTED_EDGE('',*,*,#243,.T.);
#305=ORIENTED_EDGE('',*,*,#244,.T.);
#306=ORIENTED_EDGE('',*,*,#245,.T.);
#307=ORIENTED_EDGE('',*,*,#246,.T.);
#308=ORIENTED_EDGE('',*,*,#242,.F.);
#309=ORIENTED_EDGE('',*,*,#247,.T.);
#310=ORIENTED_EDGE('',*,*,#229,.F.);
#311=ORIENTED_EDGE('',*,*,#248,.F.);
#312=ORIENTED_EDGE('',*,*,#232,.F.);
#313=ORIENTED_EDGE('',*,*,#249,.F.);
#314=ORIENTED_EDGE('',*,*,#250,.T.);
#315=ORIENTED_EDGE('',*,*,#249,.T.);
#316=ORIENTED_EDGE('',*,*,#237,.F.);
#317=ORIENTED_EDGE('',*,*,#251,.F.);
#318=ORIENTED_EDGE('',*,*,#252,.T.);
#319=ORIENTED_EDGE('',*,*,#251,.T.);
#320=ORIENTED_EDGE('',*,*,#236,.F.);
#321=ORIENTED_EDGE('',*,*,#253,.F.);
#322=ORIENTED_EDGE('',*,*,#254,.T.);
#323=ORIENTED_EDGE('',*,*,#253,.T.);
#324=ORIENTED_EDGE('',*,*,#235,.F.);
#325=ORIENTED_EDGE('',*,*,#255,.F.);
#326=ORIENTED_EDGE('',*,*,#256,.T.);
#327=ORIENTED_EDGE('',*,*,#255,.T.);
#328=ORIENTED_EDGE('',*,*,#234,.F.);
#329=ORIENTED_EDGE('',*,*,#257,.F.);
#330=ORIENTED_EDGE('',*,*,#258,.T.);
#331=ORIENTED_EDGE('',*,*,#257,.T.);
#332=ORIENTED_EDGE('',*,*,#233,.F.);
#333=ORIENTED_EDGE('',*,*,#248,.T.);
#334=ORIENTED_EDGE('',*,*,#228,.F.);
#335=ORIENTED_EDGE('',*,*,#259,.F.);
#336=ORIENTED_EDGE('',*,*,#260,.T.);
#337=ORIENTED_EDGE('',*,*,#259,.T.);
#338=ORIENTED_EDGE('',*,*,#231,.F.);
#339=ORIENTED_EDGE('',*,*,#221,.F.);
#340=ORIENTED_EDGE('',*,*,#261,.F.);
#341=ORIENTED_EDGE('',*,*,#262,.T.);
#342=ORIENTED_EDGE('',*,*,#261,.T.);
#343=ORIENTED_EDGE('',*,*,#240,.F.);
#344=ORIENTED_EDGE('',*,*,#263,.F.);
#345=ORIENTED_EDGE('',*,*,#264,.T.);
#346=ORIENTED_EDGE('',*,*,#263,.T.);
#347=ORIENTED_EDGE('',*,*,#239,.F.);
#348=ORIENTED_EDGE('',*,*,#265,.F.);
#349=ORIENTED_EDGE('',*,*,#266,.T.);
#350=ORIENTED_EDGE('',*,*,#265,.T.);
#351=ORIENTED_EDGE('',*,*,#238,.F.);
#352=ORIENTED_EDGE('',*,*,#223,.T.);
#353=ORIENTED_EDGE('',*,*,#230,.F.);
#354=ORIENTED_EDGE('',*,*,#247,.F.);
#355=ORIENTED_EDGE('',*,*,#241,.F.);
#356=ORIENTED_EDGE('',*,*,#267,.F.);
#357=ORIENTED_EDGE('',*,*,#268,.T.);
#358=ORIENTED_EDGE('',*,*,#267,.T.);
#359=ORIENTED_EDGE('',*,*,#244,.F.);
#360=ORIENTED_EDGE('',*,*,#269,.F.);
#361=ORIENTED_EDGE('',*,*,#270,.T.);
#362=ORIENTED_EDGE('',*,*,#269,.T.);
#363=ORIENTED_EDGE('',*,*,#243,.F.);
#364=ORIENTED_EDGE('',*,*,#246,.F.);
#365=ORIENTED_EDGE('',*,*,#271,.F.);
#366=ORIENTED_EDGE('',*,*,#272,.T.);
#367=ORIENTED_EDGE('',*,*,#227,.F.);
#368=ORIENTED_EDGE('',*,*,#273,.F.);
#369=ORIENTED_EDGE('',*,*,#274,.F.);
#370=ORIENTED_EDGE('',*,*,#273,.T.);
#371=ORIENTED_EDGE('',*,*,#226,.F.);
#372=ORIENTED_EDGE('',*,*,#275,.F.);
#373=ORIENTED_EDGE('',*,*,#276,.F.);
#374=ORIENTED_EDGE('',*,*,#275,.T.);
#375=ORIENTED_EDGE('',*,*,#225,.F.);
#376=ORIENTED_EDGE('',*,*,#277,.F.);
#377=ORIENTED_EDGE('',*,*,#278,.F.);
#378=ORIENTED_EDGE('',*,*,#277,.T.);
#379=ORIENTED_EDGE('',*,*,#224,.F.);
#380=ORIENTED_EDGE('',*,*,#272,.F.);
#381=ORIENTED_EDGE('',*,*,#278,.T.);
#382=ORIENTED_EDGE('',*,*,#271,.T.);
#383=ORIENTED_EDGE('',*,*,#274,.T.);
#384=ORIENTED_EDGE('',*,*,#276,.T.);
#385=ORIENTED_EDGE('',*,*,#268,.F.);
#386=ORIENTED_EDGE('',*,*,#270,.F.);
#387=ORIENTED_EDGE('',*,*,#245,.F.);
#388=ORIENTED_EDGE('',*,*,#250,.F.);
#389=ORIENTED_EDGE('',*,*,#252,.F.);
#390=ORIENTED_EDGE('',*,*,#254,.F.);
#391=ORIENTED_EDGE('',*,*,#256,.F.);
#392=ORIENTED_EDGE('',*,*,#258,.F.);
#393=ORIENTED_EDGE('',*,*,#260,.F.);
#394=ORIENTED_EDGE('',*,*,#262,.F.);
#395=ORIENTED_EDGE('',*,*,#264,.F.);
#396=ORIENTED_EDGE('',*,*,#266,.F.);
#397=PLANE('',#455);
#398=PLANE('',#456);
#399=PLANE('',#457);
#400=PLANE('',#458);
#401=PLANE('',#459);
#402=PLANE('',#460);
#403=PLANE('',#461);
#404=PLANE('',#462);
#405=PLANE('',#463);
#406=PLANE('',#464);
#407=PLANE('',#465);
#408=PLANE('',#466);
#409=PLANE('',#467);
#410=PLANE('',#468);
#411=PLANE('',#469);
#412=PLANE('',#470);
#413=PLANE('',#471);
#414=PLANE('',#472);
#415=PLANE('',#473);
#416=PLANE('',#474);
#417=PLANE('',#475);
#418=PLANE('',#476);
#419=ADVANCED_FACE('',(#17),#397,.T.);
#420=ADVANCED_FACE('',(#18,#15),#398,.T.);
#421=ADVANCED_FACE('',(#19),#399,.T.);
#422=ADVANCED_FACE('',(#20),#400,.T.);
#423=ADVANCED_FACE('',(#21),#401,.T.);
#424=ADVANCED_FACE('',(#22),#402,.T.);
#425=ADVANCED_FACE('',(#23),#403,.T.);
#426=ADVANCED_FACE('',(#24),#404,.T.);
#427=ADVANCED_FACE('',(#25),#405,.T.);
#428=ADVANCED_FACE('',(#26),#406,.T.);
#429=ADVANCED_FACE('',(#27),#407,.T.);
#430=ADVANCED_FACE('',(#28),#408,.T.);
#431=ADVANCED_FACE('',(#29),#409,.T.);
#432=ADVANCED_FACE('',(#30),#410,.T.);
#433=ADVANCED_FACE('',(#31),#411,.T.);
#434=ADVANCED_FACE('',(#32),#412,.T.);
#435=ADVANCED_FACE('',(#33),#413,.T.);
#436=ADVANCED_FACE('',(#34),#414,.T.);
#437=ADVANCED_FACE('',(#35),#415,.T.);
#438=ADVANCED_FACE('',(#36),#416,.T.);
#439=ADVANCED_FACE('',(#37),#417,.T.);
#440=ADVANCED_FACE('',(#38,#16),#418,.F.);
#441=CLOSED_SHELL('',(#419,#420,#421,#422,#423,#424,#425,#426,#427,#428,
#429,#430,#431,#432,#433,#434,#435,#436,#437,#438,#439,#440));
#442=DERIVED_UNIT_ELEMENT(#444,1.);
#443=DERIVED_UNIT_ELEMENT(#708,-3.);
#444=(
MASS_UNIT()
NAMED_UNIT(*)
SI_UNIT(.KILO.,.GRAM.)
);
#445=DERIVED_UNIT((#442,#443));
#446=MEASURE_REPRESENTATION_ITEM('density measure',
POSITIVE_RATIO_MEASURE(7850.),#445);
#447=PROPERTY_DEFINITION_REPRESENTATION(#452,#449);
#448=PROPERTY_DEFINITION_REPRESENTATION(#453,#450);
#449=REPRESENTATION('material name',(#451),#705);
#450=REPRESENTATION('density',(#446),#705);
#451=DESCRIPTIVE_REPRESENTATION_ITEM('Steel','Steel');
#452=PROPERTY_DEFINITION('material property','material name',#715);
#453=PROPERTY_DEFINITION('material property','density of part',#715);
#454=AXIS2_PLACEMENT_3D('',#582,#477,#478);
#455=AXIS2_PLACEMENT_3D('',#583,#479,#480);
#456=AXIS2_PLACEMENT_3D('',#592,#485,#486);
#457=AXIS2_PLACEMENT_3D('',#608,#495,#496);
#458=AXIS2_PLACEMENT_3D('',#621,#503,#504);
#459=AXIS2_PLACEMENT_3D('',#627,#508,#509);
#460=AXIS2_PLACEMENT_3D('',#636,#514,#515);
#461=AXIS2_PLACEMENT_3D('',#644,#521,#522);
#462=AXIS2_PLACEMENT_3D('',#648,#525,#526);
#463=AXIS2_PLACEMENT_3D('',#652,#529,#530);
#464=AXIS2_PLACEMENT_3D('',#656,#533,#534);
#465=AXIS2_PLACEMENT_3D('',#660,#537,#538);
#466=AXIS2_PLACEMENT_3D('',#664,#541,#542);
#467=AXIS2_PLACEMENT_3D('',#668,#545,#546);
#468=AXIS2_PLACEMENT_3D('',#672,#549,#550);
#469=AXIS2_PLACEMENT_3D('',#676,#553,#554);
#470=AXIS2_PLACEMENT_3D('',#680,#557,#558);
#471=AXIS2_PLACEMENT_3D('',#684,#561,#562);
#472=AXIS2_PLACEMENT_3D('',#686,#564,#565);
#473=AXIS2_PLACEMENT_3D('',#692,#569,#570);
#474=AXIS2_PLACEMENT_3D('',#696,#573,#574);
#475=AXIS2_PLACEMENT_3D('',#700,#577,#578);
#476=AXIS2_PLACEMENT_3D('',#702,#580,#581);
#477=DIRECTION('axis',(0.,0.,1.));
#478=DIRECTION('refdir',(1.,0.,0.));
#479=DIRECTION('center_axis',(0.,0.,-1.));
#480=DIRECTION('ref_axis',(-1.,0.,0.));
#481=DIRECTION('',(1.,0.,0.));
#482=DIRECTION('',(0.,1.,0.));
#483=DIRECTION('',(-1.,0.,0.));
#484=DIRECTION('',(0.,1.,0.));
#485=DIRECTION('center_axis',(0.,1.,0.));
#486=DIRECTION('ref_axis',(0.,0.,1.));
#487=DIRECTION('',(1.,0.,0.));
#488=DIRECTION('',(0.,0.,-1.));
#489=DIRECTION('',(-1.,0.,0.));
#490=DIRECTION('',(0.,0.,1.));
#491=DIRECTION('',(0.,0.,-1.));
#492=DIRECTION('',(1.,0.,0.));
#493=DIRECTION('',(0.,0.,1.));
#494=DIRECTION('',(-0.99999999998485,0.,5.50455685034376E-6));
#495=DIRECTION('center_axis',(0.,1.,0.));
#496=DIRECTION('ref_axis',(0.,0.,1.));
#497=DIRECTION('',(-1.,0.,0.));
#498=DIRECTION('',(0.,0.,1.));
#499=DIRECTION('',(1.,0.,0.));
#500=DIRECTION('',(0.00819644597190632,0.,-0.999966408572523));
#501=DIRECTION('',(-1.,0.,0.));
#502=DIRECTION('',(0.,0.,-1.));
#503=DIRECTION('center_axis',(0.,1.,0.));
#504=DIRECTION('ref_axis',(0.,0.,1.));
#505=DIRECTION('',(0.,0.,-1.));
#506=DIRECTION('',(-1.,0.,0.));
#507=DIRECTION('',(6.03018711790334E-6,0.,0.999999999981818));
#508=DIRECTION('center_axis',(0.,1.,0.));
#509=DIRECTION('ref_axis',(0.,0.,1.));
#510=DIRECTION('',(0.,0.,-1.));
#511=DIRECTION('',(-1.,0.,0.));
#512=DIRECTION('',(0.,0.,1.));
#513=DIRECTION('',(1.,0.,0.));
#514=DIRECTION('center_axis',(0.,0.,1.));
#515=DIRECTION('ref_axis',(1.,0.,0.));
#516=DIRECTION('',(1.,0.,0.));
#517=DIRECTION('',(0.,1.,0.));
#518=DIRECTION('',(0.,1.,0.));
#519=DIRECTION('',(0.,1.,0.));
#520=DIRECTION('',(0.,1.,0.));
#521=DIRECTION('center_axis',(1.,0.,0.));
#522=DIRECTION('ref_axis',(0.,0.,-1.));
#523=DIRECTION('',(0.,0.,-1.));
#524=DIRECTION('',(0.,1.,0.));
#525=DIRECTION('center_axis',(0.,0.,-1.));
#526=DIRECTION('ref_axis',(-1.,0.,0.));
#527=DIRECTION('',(-1.,0.,0.));
#528=DIRECTION('',(0.,1.,0.));
#529=DIRECTION('center_axis',(0.999966408572523,0.,0.00819644597190632));
#530=DIRECTION('ref_axis',(0.00819644597190632,0.,-0.999966408572523));
#531=DIRECTION('',(0.00819644597190632,0.,-0.999966408572523));
#532=DIRECTION('',(0.,1.,0.));
#533=DIRECTION('center_axis',(0.,0.,1.));
#534=DIRECTION('ref_axis',(1.,0.,0.));
#535=DIRECTION('',(1.,0.,0.));
#536=DIRECTION('',(0.,1.,0.));
#537=DIRECTION('center_axis',(1.,0.,0.));
#538=DIRECTION('ref_axis',(0.,0.,-1.));
#539=DIRECTION('',(0.,0.,-1.));
#540=DIRECTION('',(0.,1.,0.));
#541=DIRECTION('center_axis',(-5.50455685034376E-6,0.,-0.99999999998485));
#542=DIRECTION('ref_axis',(-0.99999999998485,0.,5.50455685034376E-6));
#543=DIRECTION('',(-0.99999999998485,0.,5.50455685034376E-6));
#544=DIRECTION('',(0.,1.,0.));
#545=DIRECTION('center_axis',(-0.999999999981818,0.,6.03018711790334E-6));
#546=DIRECTION('ref_axis',(6.03018711790334E-6,0.,0.999999999981818));
#547=DIRECTION('',(6.03018711790334E-6,0.,0.999999999981818));
#548=DIRECTION('',(0.,1.,0.));
#549=DIRECTION('center_axis',(0.,0.,-1.));
#550=DIRECTION('ref_axis',(-1.,0.,0.));
#551=DIRECTION('',(-1.,0.,0.));
#552=DIRECTION('',(0.,1.,0.));
#553=DIRECTION('center_axis',(-1.,0.,0.));
#554=DIRECTION('ref_axis',(0.,0.,1.));
#555=DIRECTION('',(0.,0.,1.));
#556=DIRECTION('',(0.,1.,0.));
#557=DIRECTION('center_axis',(0.,0.,1.));
#558=DIRECTION('ref_axis',(1.,0.,0.));
#559=DIRECTION('',(1.,0.,0.));
#560=DIRECTION('',(0.,1.,0.));
#561=DIRECTION('center_axis',(-1.,0.,0.));
#562=DIRECTION('ref_axis',(0.,0.,1.));
#563=DIRECTION('',(0.,0.,1.));
#564=DIRECTION('center_axis',(-1.,0.,0.));
#565=DIRECTION('ref_axis',(0.,0.,1.));
#566=DIRECTION('',(0.,0.,-1.));
#567=DIRECTION('',(0.,1.,0.));
#568=DIRECTION('',(0.,1.,0.));
#569=DIRECTION('center_axis',(0.,0.,-1.));
#570=DIRECTION('ref_axis',(-1.,0.,0.));
#571=DIRECTION('',(1.,0.,0.));
#572=DIRECTION('',(0.,1.,0.));
#573=DIRECTION('center_axis',(1.,0.,0.));
#574=DIRECTION('ref_axis',(0.,0.,-1.));
#575=DIRECTION('',(0.,0.,1.));
#576=DIRECTION('',(0.,1.,0.));
#577=DIRECTION('center_axis',(0.,0.,1.));
#578=DIRECTION('ref_axis',(1.,0.,0.));
#579=DIRECTION('',(-1.,0.,0.));
#580=DIRECTION('center_axis',(0.,1.,0.));
#581=DIRECTION('ref_axis',(1.,0.,0.));
#582=CARTESIAN_POINT('',(0.,0.,0.));
#583=CARTESIAN_POINT('Origin',(78.7398476,0.,151.765));
#584=CARTESIAN_POINT('',(70.866,1.6,151.765));
#585=CARTESIAN_POINT('',(78.7398476,1.6,151.765));
#586=CARTESIAN_POINT('',(69.8816738,1.6,151.765));
#587=CARTESIAN_POINT('',(70.866,2.4,151.765));
#588=CARTESIAN_POINT('',(70.866,0.,151.765));
#589=CARTESIAN_POINT('',(78.7398476,2.4,151.765));
#590=CARTESIAN_POINT('',(70.866,2.4,151.765));
#591=CARTESIAN_POINT('',(78.7398476,0.,151.765));
#592=CARTESIAN_POINT('Origin',(61.0235,2.4,127.));
#593=CARTESIAN_POINT('',(42.672,2.4,152.4));
#594=CARTESIAN_POINT('',(79.375,2.4,152.4));
#595=CARTESIAN_POINT('',(79.375,2.4,152.4));
#596=CARTESIAN_POINT('',(79.375,2.4,101.6));
#597=CARTESIAN_POINT('',(79.375,2.4,101.6));
#598=CARTESIAN_POINT('',(42.672,2.4,101.6));
#599=CARTESIAN_POINT('',(42.672,2.4,101.6));
#600=CARTESIAN_POINT('',(42.672,2.4,152.4));
#601=CARTESIAN_POINT('',(43.1798476,2.4,151.7651524));
#602=CARTESIAN_POINT('',(43.1798476,2.4,102.7431524));
#603=CARTESIAN_POINT('',(43.1798476,2.4,141.9861524));
#604=CARTESIAN_POINT('',(78.7398476,2.4,102.7431524));
#605=CARTESIAN_POINT('',(63.4998476,2.4,102.7431524));
#606=CARTESIAN_POINT('',(78.7398476,2.4,151.765));
#607=CARTESIAN_POINT('',(43.1798476,2.4,151.7651524));
#608=CARTESIAN_POINT('Origin',(61.0235,1.6,127.));
#609=CARTESIAN_POINT('',(44.4498476,1.6,102.7431524));
#610=CARTESIAN_POINT('',(43.1798476,1.6,102.7431524));
#611=CARTESIAN_POINT('',(52.1016738,1.6,102.7431524));
#612=CARTESIAN_POINT('',(43.1798476,1.6,141.9861524));
#613=CARTESIAN_POINT('',(43.1798476,1.6,139.3825762));
#614=CARTESIAN_POINT('',(49.1488476,1.6,141.9861524));
#615=CARTESIAN_POINT('',(49.1488476,1.6,141.9861524));
#616=CARTESIAN_POINT('',(49.2758476,1.6,126.4921524));
#617=CARTESIAN_POINT('',(49.2758476,1.6,126.4921524));
#618=CARTESIAN_POINT('',(44.4498476,1.6,126.4921524));
#619=CARTESIAN_POINT('',(44.4498476,1.6,126.4921524));
#620=CARTESIAN_POINT('',(44.4498476,1.6,102.7431524));
#621=CARTESIAN_POINT('Origin',(61.0235,1.6,127.));
#622=CARTESIAN_POINT('',(78.7398476,1.6,126.4921524));
#623=CARTESIAN_POINT('',(78.7398476,1.6,114.8715762));
#624=CARTESIAN_POINT('',(70.8658476,1.6,126.4921524));
#625=CARTESIAN_POINT('',(70.8658476,1.6,126.4921524));
#626=CARTESIAN_POINT('',(70.866,1.6,151.765));
#627=CARTESIAN_POINT('Origin',(61.0235,1.6,127.));
#628=CARTESIAN_POINT('',(78.7398476,1.6,106.8071524));
#629=CARTESIAN_POINT('',(78.7398476,1.6,102.7431524));
#630=CARTESIAN_POINT('',(78.7398476,1.6,114.8715762));
#631=CARTESIAN_POINT('',(63.4998476,1.6,102.7431524));
#632=CARTESIAN_POINT('',(52.1016738,1.6,102.7431524));
#633=CARTESIAN_POINT('',(63.4998476,1.6,106.8071524));
#634=CARTESIAN_POINT('',(63.4998476,1.6,106.8071524));
#635=CARTESIAN_POINT('',(78.7398476,1.6,106.8071524));
#636=CARTESIAN_POINT('Origin',(44.4498476,0.,102.7431524));
#637=CARTESIAN_POINT('',(44.4498476,0.,102.7431524));
#638=CARTESIAN_POINT('',(63.4998476,0.,102.7431524));
#639=CARTESIAN_POINT('',(63.4998476,0.,102.7431524));
#640=CARTESIAN_POINT('',(63.4998476,0.,102.7431524));
#641=CARTESIAN_POINT('',(78.7398476,0.,102.7431524));
#642=CARTESIAN_POINT('',(43.1798476,0.,102.7431524));
#643=CARTESIAN_POINT('',(44.4498476,0.,102.7431524));
#644=CARTESIAN_POINT('Origin',(44.4498476,0.,126.4921524));
#645=CARTESIAN_POINT('',(44.4498476,0.,126.4921524));
#646=CARTESIAN_POINT('',(44.4498476,0.,102.7431524));
#647=CARTESIAN_POINT('',(44.4498476,0.,126.4921524));
#648=CARTESIAN_POINT('Origin',(49.2758476,0.,126.4921524));
#649=CARTESIAN_POINT('',(49.2758476,0.,126.4921524));
#650=CARTESIAN_POINT('',(44.4498476,0.,126.4921524));
#651=CARTESIAN_POINT('',(49.2758476,0.,126.4921524));
#652=CARTESIAN_POINT('Origin',(49.1488476,0.,141.9861524));
#653=CARTESIAN_POINT('',(49.1488476,0.,141.9861524));
#654=CARTESIAN_POINT('',(49.2758476,0.,126.4921524));
#655=CARTESIAN_POINT('',(49.1488476,0.,141.9861524));
#656=CARTESIAN_POINT('Origin',(43.1798476,0.,141.9861524));
#657=CARTESIAN_POINT('',(43.1798476,0.,141.9861524));
#658=CARTESIAN_POINT('',(49.1488476,0.,141.9861524));
#659=CARTESIAN_POINT('',(43.1798476,0.,141.9861524));
#660=CARTESIAN_POINT('Origin',(43.1798476,0.,151.7651524));
#661=CARTESIAN_POINT('',(43.1798476,0.,151.7651524));
#662=CARTESIAN_POINT('',(43.1798476,0.,141.9861524));
#663=CARTESIAN_POINT('',(43.1798476,0.,151.7651524));
#664=CARTESIAN_POINT('Origin',(70.866,0.,151.765));
#665=CARTESIAN_POINT('',(70.866,0.,151.765));
#666=CARTESIAN_POINT('',(43.1798476,0.,151.7651524));
#667=CARTESIAN_POINT('',(70.866,0.,151.765));
#668=CARTESIAN_POINT('Origin',(70.8658476,0.,126.4921524));
#669=CARTESIAN_POINT('',(70.8658476,0.,126.4921524));
#670=CARTESIAN_POINT('',(70.866,0.,151.765));
#671=CARTESIAN_POINT('',(70.8658476,0.,126.4921524));
#672=CARTESIAN_POINT('Origin',(78.7398476,0.,126.4921524));
#673=CARTESIAN_POINT('',(78.7398476,0.,126.4921524));
#674=CARTESIAN_POINT('',(70.8658476,0.,126.4921524));
#675=CARTESIAN_POINT('',(78.7398476,0.,126.4921524));
#676=CARTESIAN_POINT('Origin',(78.7398476,0.,106.8071524));
#677=CARTESIAN_POINT('',(78.7398476,0.,106.8071524));
#678=CARTESIAN_POINT('',(78.7398476,0.,126.4921524));
#679=CARTESIAN_POINT('',(78.7398476,0.,106.8071524));
#680=CARTESIAN_POINT('Origin',(63.4998476,0.,106.8071524));
#681=CARTESIAN_POINT('',(63.4998476,0.,106.8071524));
#682=CARTESIAN_POINT('',(78.7398476,0.,106.8071524));
#683=CARTESIAN_POINT('',(63.4998476,0.,106.8071524));
#684=CARTESIAN_POINT('Origin',(63.4998476,0.,102.7431524));
#685=CARTESIAN_POINT('',(63.4998476,0.,106.8071524));
#686=CARTESIAN_POINT('Origin',(42.672,0.,101.6));
#687=CARTESIAN_POINT('',(42.672,0.,152.4));
#688=CARTESIAN_POINT('',(42.672,0.,101.6));
#689=CARTESIAN_POINT('',(42.672,0.,152.4));
#690=CARTESIAN_POINT('',(42.672,0.,152.4));
#691=CARTESIAN_POINT('',(42.672,0.,101.6));
#692=CARTESIAN_POINT('Origin',(79.375,0.,101.6));
#693=CARTESIAN_POINT('',(79.375,0.,101.6));
#694=CARTESIAN_POINT('',(42.672,0.,101.6));
#695=CARTESIAN_POINT('',(79.375,0.,101.6));
#696=CARTESIAN_POINT('Origin',(79.375,0.,152.4));
#697=CARTESIAN_POINT('',(79.375,0.,152.4));
#698=CARTESIAN_POINT('',(79.375,0.,101.6));
#699=CARTESIAN_POINT('',(79.375,0.,152.4));
#700=CARTESIAN_POINT('Origin',(42.672,0.,152.4));
#701=CARTESIAN_POINT('',(79.375,0.,152.4));
#702=CARTESIAN_POINT('Origin',(61.0235,0.,127.));
#703=UNCERTAINTY_MEASURE_WITH_UNIT(LENGTH_MEASURE(0.01),#707,
'DISTANCE_ACCURACY_VALUE',
'Maximum model space distance between geometric entities at asserted c
onnectivities');
#704=UNCERTAINTY_MEASURE_WITH_UNIT(LENGTH_MEASURE(0.01),#707,
'DISTANCE_ACCURACY_VALUE',
'Maximum model space distance between geometric entities at asserted c
onnectivities');
#705=(
GEOMETRIC_REPRESENTATION_CONTEXT(3)
GLOBAL_UNCERTAINTY_ASSIGNED_CONTEXT((#703))
GLOBAL_UNIT_ASSIGNED_CONTEXT((#707,#709,#710))
REPRESENTATION_CONTEXT('','3D')
);
#706=(
GEOMETRIC_REPRESENTATION_CONTEXT(3)
GLOBAL_UNCERTAINTY_ASSIGNED_CONTEXT((#704))
GLOBAL_UNIT_ASSIGNED_CONTEXT((#707,#709,#710))
REPRESENTATION_CONTEXT('','3D')
);
#707=(
LENGTH_UNIT()
NAMED_UNIT(*)
SI_UNIT(.MILLI.,.METRE.)
);
#708=(
LENGTH_UNIT()
NAMED_UNIT(*)
SI_UNIT($,.METRE.)
);
#709=(
NAMED_UNIT(*)
PLANE_ANGLE_UNIT()
SI_UNIT($,.RADIAN.)
);
#710=(
NAMED_UNIT(*)
SI_UNIT($,.STERADIAN.)
SOLID_ANGLE_UNIT()
);
#711=SHAPE_DEFINITION_REPRESENTATION(#712,#713);
#712=PRODUCT_DEFINITION_SHAPE('',$,#715);
#713=SHAPE_REPRESENTATION('',(#454),#705);
#714=PRODUCT_DEFINITION_CONTEXT('part definition',#719,'design');
#715=PRODUCT_DEFINITION('PCB 3.2','PCB 3.2 v4',#716,#714);
#716=PRODUCT_DEFINITION_FORMATION('',$,#721);
#717=PRODUCT_RELATED_PRODUCT_CATEGORY('PCB 3.2 v4','PCB 3.2 v4',(#721));
#718=APPLICATION_PROTOCOL_DEFINITION('international standard',
'automotive_design',2009,#719);
#719=APPLICATION_CONTEXT(
'Core Data for Automotive Mechanical Design Process');
#720=PRODUCT_CONTEXT('part definition',#719,'mechanical');
#721=PRODUCT('PCB 3.2','PCB 3.2 v4',$,(#720));
#722=PRESENTATION_STYLE_ASSIGNMENT((#723));
#723=SURFACE_STYLE_USAGE(.BOTH.,#724);
#724=SURFACE_SIDE_STYLE('',(#725));
#725=SURFACE_STYLE_FILL_AREA(#726);
#726=FILL_AREA_STYLE('Steel - Satin',(#727));
#727=FILL_AREA_STYLE_COLOUR('Steel - Satin',#728);
#728=COLOUR_RGB('Steel - Satin',0.627450980392157,0.627450980392157,0.627450980392157);
ENDSEC;
END-ISO-10303-21;
